<svg width="1441" height="1337" viewBox="0 0 1441 1337" fill="none" xmlns="http://www.w3.org/2000/svg">
<mask id="mask0_904_126900" style="mask-type:alpha" maskUnits="userSpaceOnUse" x="-6" y="-87" width="1501" height="1074">
<path fill-rule="evenodd" clip-rule="evenodd" d="M531.062 774.435V986.142C234.958 986.142 -5.08057 746.103 -5.08057 450C-5.08057 153.897 234.958 -86.1418 531.062 -86.1418C705.23 -86.1418 860.002 -3.09254 957.936 125.566V-86.1418C1254.04 -86.1418 1494.08 153.897 1494.08 450C1494.08 746.103 1254.04 986.142 957.936 986.142C783.767 986.142 628.996 903.093 531.062 774.435ZM213.456 450C213.456 274.591 355.653 132.394 531.062 132.394C706.471 132.394 848.668 274.591 848.668 450H1067.2C1067.2 331.146 1028.53 221.325 963.079 132.435C1136.12 135.182 1275.54 276.309 1275.54 450C1275.54 625.409 1133.34 767.606 957.936 767.606C782.527 767.606 640.33 625.409 640.33 450H421.794C421.794 568.854 460.468 678.675 525.919 767.565C352.882 764.818 213.456 623.692 213.456 450Z" fill="url(#paint0_linear_904_126900)"/>
</mask>
<g mask="url(#mask0_904_126900)">
<g filter="url(#filter0_ii_904_126900)">
<path fill-rule="evenodd" clip-rule="evenodd" d="M213.455 450C213.455 274.591 355.652 132.394 531.061 132.394C706.47 132.394 848.667 274.591 848.667 450H1067.2C1067.2 331.146 1028.53 221.325 963.078 132.435C1136.11 135.183 1275.54 276.309 1275.54 450C1275.54 625.409 1133.34 767.606 957.934 767.606C782.525 767.606 640.328 625.409 640.328 450H421.792C421.792 568.854 460.466 678.675 525.917 767.565C352.88 764.818 213.455 623.691 213.455 450ZM531.061 774.437V986.142C234.958 986.142 -5.08105 746.103 -5.08105 450C-5.08105 153.897 234.958 -86.1418 531.061 -86.1418C705.229 -86.1418 860 -3.09338 957.934 125.564V-86.1418C1254.04 -86.1418 1494.08 153.897 1494.08 450C1494.08 746.103 1254.04 986.142 957.934 986.142C783.766 986.142 628.995 903.094 531.061 774.437Z" fill="url(#paint1_radial_904_126900)"/>
<path fill-rule="evenodd" clip-rule="evenodd" d="M213.455 450C213.455 274.591 355.652 132.394 531.061 132.394C706.47 132.394 848.667 274.591 848.667 450H1067.2C1067.2 331.146 1028.53 221.325 963.078 132.435C1136.11 135.183 1275.54 276.309 1275.54 450C1275.54 625.409 1133.34 767.606 957.934 767.606C782.525 767.606 640.328 625.409 640.328 450H421.792C421.792 568.854 460.466 678.675 525.917 767.565C352.88 764.818 213.455 623.691 213.455 450ZM531.061 774.437V986.142C234.958 986.142 -5.08105 746.103 -5.08105 450C-5.08105 153.897 234.958 -86.1418 531.061 -86.1418C705.229 -86.1418 860 -3.09338 957.934 125.564V-86.1418C1254.04 -86.1418 1494.08 153.897 1494.08 450C1494.08 746.103 1254.04 986.142 957.934 986.142C783.766 986.142 628.995 903.094 531.061 774.437Z" fill="#1F2E7E" fill-opacity="0.2"/>
</g>
</g>
<defs>
<filter id="filter0_ii_904_126900" x="-39.885" y="-86.1418" width="1583.93" height="1133.19" filterUnits="userSpaceOnUse" color-interpolation-filters="sRGB">
<feFlood flood-opacity="0" result="BackgroundImageFix"/>
<feBlend mode="normal" in="SourceGraphic" in2="BackgroundImageFix" result="shape"/>
<feColorMatrix in="SourceAlpha" type="matrix" values="0 0 0 0 0 0 0 0 0 0 0 0 0 0 0 0 0 0 127 0" result="hardAlpha"/>
<feOffset dx="-34.804" dy="60.9069"/>
<feGaussianBlur stdDeviation="73.9584"/>
<feComposite in2="hardAlpha" operator="arithmetic" k2="-1" k3="1"/>
<feColorMatrix type="matrix" values="0 0 0 0 0.0666667 0 0 0 0 1 0 0 0 0 0.960784 0 0 0 1 0"/>
<feBlend mode="lighten" in2="shape" result="effect1_innerShadow_904_126900"/>
<feColorMatrix in="SourceAlpha" type="matrix" values="0 0 0 0 0 0 0 0 0 0 0 0 0 0 0 0 0 0 127 0" result="hardAlpha"/>
<feOffset dx="49.9719" dy="29.1503"/>
<feGaussianBlur stdDeviation="29.1503"/>
<feComposite in2="hardAlpha" operator="arithmetic" k2="-1" k3="1"/>
<feColorMatrix type="matrix" values="0 0 0 0 0.431081 0 0 0 0 0.19599 0 0 0 0 0.6625 0 0 0 1 0"/>
<feBlend mode="multiply" in2="effect1_innerShadow_904_126900" result="effect2_innerShadow_904_126900"/>
</filter>
<linearGradient id="paint0_linear_904_126900" x1="161.05" y1="789.032" x2="1338.34" y2="173.278" gradientUnits="userSpaceOnUse">
<stop offset="0.132716" stop-opacity="0"/>
<stop offset="1"/>
</linearGradient>
<radialGradient id="paint1_radial_904_126900" cx="0" cy="0" r="1" gradientUnits="userSpaceOnUse" gradientTransform="translate(358.292 -173.657) rotate(87.2125) scale(382.368 994.058)">
<stop stop-color="#BC78FF"/>
<stop offset="1" stop-color="#962CFF"/>
</radialGradient>
</defs>
</svg>
