<svg width="160" height="161" viewBox="0 0 160 161" fill="none" xmlns="http://www.w3.org/2000/svg">
<path d="M0.0016513 80.4583C0.0016513 36.1472 35.8933 0.416016 79.9671 0.416016C124.041 0.416016 159.933 36.1207 159.933 80.4583C159.933 99.2675 153.448 116.565 142.589 130.223C127.607 149.138 104.735 160.502 79.9655 160.502C55.1963 160.502 32.2943 149.067 17.33 130.223C6.47173 116.566 0 99.2691 0 80.4583H0.0016513Z" fill="#D6DCE8" fill-opacity="0.3"/>
<path d="M9.28525 143.76C10.157 141.835 9.277 139.556 7.35364 138.684C5.43028 137.811 3.16518 138.666 2.29348 140.591C1.42177 142.516 2.26376 144.81 4.18712 145.681C6.11048 146.553 8.41355 145.684 9.28525 143.759V143.76Z" fill="#D6DCE8" fill-opacity="0.3"/>
<path d="M14.9365 151.291C15.4912 150.067 14.9316 148.616 13.7082 148.06C12.4848 147.505 11.0419 148.049 10.4872 149.275C9.93248 150.5 10.469 151.96 11.6924 152.516C12.9157 153.071 14.3818 152.517 14.9365 151.293V151.291Z" fill="#D6DCE8" fill-opacity="0.3"/>
<path d="M150.679 10.624C152.054 9.02102 151.849 6.58518 150.248 5.20862C148.647 3.83206 146.233 4.01549 144.858 5.61845C143.482 7.22141 143.647 9.6589 145.249 11.0371C146.85 12.4137 149.305 12.2269 150.681 10.624H150.679Z" fill="#D6DCE8" fill-opacity="0.3"/>
<path d="M153.994 19.4388C154.869 18.4175 154.739 16.8691 153.72 15.9916C152.7 15.1158 151.165 15.2331 150.29 16.2527C149.415 17.274 149.519 18.8241 150.539 19.7016C151.559 20.5774 153.121 20.4584 153.996 19.4388H153.994Z" fill="#D6DCE8" fill-opacity="0.3"/>
<path d="M14.109 18.2119C15.4843 16.6089 15.2796 14.1731 13.6781 12.7965C12.0767 11.4199 9.66301 11.6034 8.28777 13.2063C6.91253 14.8093 7.07763 17.2468 8.67905 18.625C10.2805 20.0016 12.7354 19.8148 14.1107 18.2119H14.109Z" fill="#D6DCE8" fill-opacity="0.3"/>
<path d="M142.185 40.062V148.531C142.185 155.148 136.838 160.501 130.227 160.501H31.8817C25.2713 160.501 19.9238 155.148 19.9238 148.531V12.3853C19.9238 5.76858 25.2713 0.416016 31.8817 0.416016H100.104C100.728 0.416016 101.341 0.465592 101.94 0.553177C104.251 0.915082 106.425 1.95453 108.174 3.5674L138.31 31.2441C140.11 32.895 141.346 35.0466 141.871 37.3849C142.084 38.2608 142.183 39.1482 142.183 40.062H142.185Z" fill="white"/>
<path d="M141.871 37.3864H107.728C104.531 37.3864 101.939 34.792 101.939 31.5926V0.554688C104.251 0.916593 106.425 1.95604 108.173 3.56892L138.31 31.2456C140.109 32.8965 141.346 35.0481 141.871 37.3864Z" fill="url(#paint0_linear_3393_94580)"/>
<path d="M84.1207 13.4678H42.0347C41.7858 13.4678 41.584 13.6698 41.584 13.9189V18.2866C41.584 18.5357 41.7858 18.7377 42.0347 18.7377H84.1207C84.3697 18.7377 84.5715 18.5357 84.5715 18.2866V13.9189C84.5715 13.6698 84.3697 13.4678 84.1207 13.4678Z" fill="#E0E4ED"/>
<path d="M66.9063 25.9609H42.0347C41.7858 25.9609 41.584 26.1629 41.584 26.4121V30.7797C41.584 31.0289 41.7858 31.2309 42.0347 31.2309H66.9063C67.1552 31.2309 67.357 31.0289 67.357 30.7797V26.4121C67.357 26.1629 67.1552 25.9609 66.9063 25.9609Z" fill="#E0E4ED"/>
<path d="M93.3776 136.848H42.4904C41.9898 136.848 41.584 137.254 41.584 137.755V141.276C41.584 141.778 41.9898 142.184 42.4904 142.184H93.3776C93.8782 142.184 94.284 141.778 94.284 141.276V137.755C94.284 137.254 93.8782 136.848 93.3776 136.848Z" fill="#E0E4ED"/>
<path d="M104.586 103.28C92.7601 115.107 73.5958 115.107 61.78 103.28C49.9542 91.4428 49.9542 72.27 61.78 60.4329C73.5958 48.6057 92.7601 48.6057 104.586 60.4329C116.402 72.27 116.402 91.4428 104.586 103.28Z" fill="url(#paint1_linear_3393_94580)"/>
<path d="M55.5268 54.173C40.2522 69.4623 40.2522 94.247 55.5268 109.536C70.8014 124.826 95.5623 124.826 110.837 109.536C126.112 94.247 126.112 69.4623 110.837 54.173C95.5623 38.8837 70.8014 38.8837 55.5268 54.173ZM103.158 101.85C92.1234 112.896 74.2386 112.896 63.2053 101.85C52.1704 90.8048 52.1704 72.9045 63.2053 61.859C74.2403 50.8134 92.1234 50.8134 103.158 61.859C114.193 72.9045 114.193 90.8065 103.158 101.85Z" fill="url(#paint2_linear_3393_94580)"/>
<path d="M122.836 114.138L115.439 121.542L106.881 112.986C109.729 110.835 112.291 108.234 114.29 105.583L122.837 114.138H122.836Z" fill="url(#paint3_linear_3393_94580)"/>
<path d="M128.379 112.882L144.933 129.452C148.854 133.377 148.854 139.743 144.933 143.667C141.012 147.592 134.653 147.592 130.732 143.667L114.178 127.097C112.997 125.916 112.997 123.999 114.178 122.817L124.103 112.882C125.284 111.701 127.199 111.701 128.379 112.882Z" fill="url(#paint4_linear_3393_94580)"/>
<path d="M95.9447 93.4454C94.5831 94.8455 92.2713 94.8485 90.9096 93.4454L83.9894 86.5508L77.0904 93.4454C75.7015 94.8515 73.423 94.8515 72.0553 93.4454C70.6543 92.0846 70.6513 89.7743 72.0553 88.4135L78.9543 81.5189L72.0553 74.6031C70.6482 73.197 70.6482 70.9562 72.0553 69.5501C73.4048 68.1591 75.6803 68.1409 77.0904 69.5501L83.9894 76.4447L90.9096 69.5501C92.2985 68.1621 94.5589 68.1621 95.9447 69.5501C97.2882 70.8564 97.4062 73.1425 95.9447 74.6031L89.0457 81.5189L95.9447 88.4135C97.3518 89.8015 97.3518 92.0604 95.9447 93.4454Z" fill="#A5ACBF"/>
<defs>
<linearGradient id="paint0_linear_3393_94580" x1="101.939" y1="18.9706" x2="141.871" y2="18.9706" gradientUnits="userSpaceOnUse">
<stop stop-color="#D6DCE8"/>
<stop offset="1" stop-color="white"/>
</linearGradient>
<linearGradient id="paint1_linear_3393_94580" x1="52.9111" y1="81.8564" x2="113.448" y2="81.8564" gradientUnits="userSpaceOnUse">
<stop stop-color="#D6DCE8"/>
<stop offset="1" stop-color="white"/>
</linearGradient>
<linearGradient id="paint2_linear_3393_94580" x1="44.0691" y1="81.8547" x2="122.293" y2="81.8547" gradientUnits="userSpaceOnUse">
<stop stop-color="#989FB0"/>
<stop offset="1" stop-color="#AAB2C5"/>
</linearGradient>
<linearGradient id="paint3_linear_3393_94580" x1="106.881" y1="113.563" x2="122.836" y2="113.563" gradientUnits="userSpaceOnUse">
<stop stop-color="#989FB0"/>
<stop offset="1" stop-color="#AAB2C5"/>
</linearGradient>
<linearGradient id="paint4_linear_3393_94580" x1="113.293" y1="129.304" x2="147.875" y2="129.304" gradientUnits="userSpaceOnUse">
<stop stop-color="#989FB0"/>
<stop offset="1" stop-color="#AAB2C5"/>
</linearGradient>
</defs>
</svg>
