<svg width="60" height="60" viewBox="0 0 60 60" fill="none" xmlns="http://www.w3.org/2000/svg">
<g id="BLT">
<path id="Ellipse 489" d="M30 60C46.5685 60 60 46.5685 60 30C60 13.4315 46.5685 0 30 0C13.4315 0 0 13.4315 0 30C0 46.5685 13.4315 60 30 60Z" fill="url(#paint0_linear_3801_4745)"/>
<path id="Path 27756" d="M13.8462 13.9629H26.4772C29.8754 13.9629 33.1344 15.3128 35.5373 17.7157C37.9403 20.1186 39.2902 23.3777 39.2902 26.7759V36.1669C39.2902 39.541 37.9498 42.7769 35.564 45.1627C33.1782 47.5485 29.9423 48.8889 26.5682 48.8889C23.1941 48.8889 19.9582 47.5485 17.5724 45.1627C15.1865 42.7769 13.8462 39.541 13.8462 36.1669V13.9629ZM26.5672 44.2749C28.7168 44.2725 30.7778 43.4175 32.2978 41.8975C33.8178 40.3775 34.6728 38.3165 34.6752 36.1669V26.7759C34.6736 24.6016 33.8092 22.5168 32.2717 20.9794C30.7343 19.4419 28.6495 18.5775 26.4752 18.5759H18.4612V36.1669C18.4633 38.3163 19.3179 40.377 20.8376 41.8971C22.3573 43.4171 24.4178 44.2722 26.5672 44.2749Z" fill="white"/>
<path id="Path 27757" d="M26.5672 23.447H36.0502C39.4243 23.447 42.6602 24.7874 45.046 27.1732C47.4319 29.559 48.7722 32.7949 48.7722 36.169C48.7722 39.5431 47.4319 42.779 45.046 45.1648C42.6602 47.5507 39.4243 48.891 36.0502 48.891H26.5672C23.1931 48.891 19.9572 47.5507 17.5714 45.1648C15.1856 42.779 13.8452 39.5431 13.8452 36.169C13.8452 32.7949 15.1856 29.559 17.5714 27.1732C19.9572 24.7874 23.1931 23.447 26.5672 23.447ZM36.0502 44.276C38.1846 44.2523 40.2235 43.3878 41.7244 41.8701C43.2254 40.3524 44.0672 38.304 44.0672 36.1695C44.0672 34.035 43.2254 31.9866 41.7244 30.4689C40.2235 28.9512 38.1846 28.0867 36.0502 28.063H26.5672C24.4328 28.0867 22.3939 28.9512 20.893 30.4689C19.3921 31.9866 18.5503 34.035 18.5503 36.1695C18.5503 38.304 19.3921 40.3524 20.893 41.8701C22.3939 43.3878 24.4328 44.2523 26.5672 44.276H36.0502Z" fill="white"/>
</g>
<defs>
<linearGradient id="paint0_linear_3801_4745" x1="30" y1="0" x2="30" y2="60" gradientUnits="userSpaceOnUse">
<stop stop-color="#29C1E1"/>
<stop offset="1" stop-color="#1AE2A0"/>
</linearGradient>
</defs>
</svg>
