<svg width="500" height="500" viewBox="0 0 500 500" fill="none" xmlns="http://www.w3.org/2000/svg">
<g clip-path="url(#clip0_488_147940)">
<path d="M250 500C388.071 500 500 388.071 500 250C500 111.929 388.071 0 250 0C111.929 0 0 111.929 0 250C0 388.071 111.929 500 250 500Z" fill="url(#paint0_linear_488_147940)"/>
<path d="M416.47 196.42C411.54 187.39 400.22 184.07 391.2 189L374.04 198.37C374.04 198.37 374.02 198.33 374.01 198.31C373.65 198.54 373.29 198.78 372.91 198.99L283.18 248C274.15 252.93 262.84 249.61 257.91 240.58C252.98 231.55 256.3 220.24 265.33 215.31L306.18 193C306.47 192.84 306.78 192.71 307.08 192.57C307.07 192.56 307.06 192.54 307.05 192.53L317.52 186.81C326.55 181.88 329.87 170.56 324.94 161.54C320.01 152.51 308.7 149.19 299.67 154.12L206.23 205.15C197.2 210.08 185.89 206.76 180.96 197.73C176.03 188.7 179.35 177.39 188.38 172.46L289.71 117.12C253.34 104.33 211.91 106.43 175.42 126.36C112.62 160.66 86.33 235.8 111.51 300.77L90.96 311.99C81.93 316.92 78.61 328.24 83.54 337.26C88.47 346.29 99.79 349.61 108.81 344.68L129.4 333.43L175.85 308.06C184.88 303.13 196.19 306.45 201.12 315.48C206.05 324.51 202.73 335.82 193.7 340.75L156.34 361.16C199.29 394.59 259.67 401.41 310.48 373.66C361.72 345.68 388.66 290.5 383.16 235.85L409.06 221.7C418.09 216.77 421.41 205.45 416.48 196.43L416.47 196.42ZM223.76 318.53C213.89 315.63 208.24 305.28 211.13 295.41C214.03 285.54 224.38 279.89 234.25 282.78C244.12 285.67 249.77 296.03 246.88 305.9C243.98 315.77 233.63 321.42 223.76 318.53Z" fill="white"/>
<path d="M352.53 164.89C362.813 164.89 371.15 156.554 371.15 146.27C371.15 135.986 362.813 127.65 352.53 127.65C342.246 127.65 333.91 135.986 333.91 146.27C333.91 156.554 342.246 164.89 352.53 164.89Z" fill="white"/>
</g>
<defs>
<linearGradient id="paint0_linear_488_147940" x1="0" y1="250" x2="500" y2="250" gradientUnits="userSpaceOnUse">
<stop stop-color="#FFA502"/>
<stop offset="1" stop-color="#FF8430"/>
</linearGradient>
<clipPath id="clip0_488_147940">
<rect width="500" height="500" fill="white"/>
</clipPath>
</defs>
</svg>
