<svg xmlns="http://www.w3.org/2000/svg" width="60" height="60" viewBox="0 0 60 60" fill="none">
  <g clip-path="url(#clip0_1717_12644)">
    <path d="M30 60C46.5685 60 60 46.5709 60 30C60 13.429 46.5685 0 30 0C13.4315 0 0 13.4314 0 30C0 46.5686 13.4315 60 30 60Z" fill="url(#paint0_linear_1717_12644)"/>
    <path d="M13 13H25.63C32.71 13 38.44 18.74 38.44 25.81V35.2C38.44 42.23 32.75 47.92 25.72 47.92C18.69 47.92 13 42.23 13 35.2V13ZM25.72 43.31C30.2 43.31 33.82 39.68 33.83 35.2V25.81C33.83 21.28 30.16 17.61 25.63 17.61H17.61V35.2C17.61 39.68 21.24 43.3 25.72 43.31Z" fill="white"/>
    <path d="M25.72 22.48H35.2C42.23 22.48 47.92 28.18 47.92 35.2C47.92 42.23 42.22 47.92 35.2 47.92H25.72C18.69 47.93 13 42.23 13 35.2C13 28.17 18.7 22.48 25.72 22.48ZM35.2 43.31C39.68 43.26 43.27 39.59 43.22 35.11C43.17 30.7 39.61 27.14 35.2 27.09H25.72C21.24 27.14 17.65 30.81 17.7 35.29C17.75 39.7 21.31 43.26 25.72 43.31H35.2Z" fill="white"/>
  </g>
  <defs>
    <linearGradient id="paint0_linear_1717_12644" x1="13.7655" y1="5.97283" x2="45.3258" y2="54.7478" gradientUnits="userSpaceOnUse">
      <stop stop-color="#31D3F5"/>
      <stop offset="1" stop-color="#21E6C1"/>
    </linearGradient>
    <clipPath id="clip0_1717_12644">
      <rect width="60" height="60" fill="white"/>
    </clipPath>
  </defs>
</svg>