<svg width="60" height="60" viewBox="0 0 60 60" fill="none" xmlns="http://www.w3.org/2000/svg">
<path d="M30 60C46.5685 60 60 46.5685 60 30C60 13.4315 46.5685 0 30 0C13.4315 0 0 13.4315 0 30C0 46.5685 13.4315 60 30 60Z" fill="#ABA7BD"/>
<path d="M37.4606 23.985C35.5172 23.0138 32.9372 22.5 30 22.5C27.0628 22.5 24.4828 23.0138 22.5394 23.985C20.5959 24.9562 19.5 26.3231 19.5 27.75V32.25C19.5 33.6769 20.6081 35.0484 22.5394 36.015C24.4706 36.9816 27.0628 37.5 30 37.5C32.9372 37.5 35.5172 36.9862 37.4606 36.015C39.4041 35.0438 40.5 33.6769 40.5 32.25V27.75C40.5 26.3231 39.3919 24.9516 37.4606 23.985ZM30 24C35.8725 24 39 26.1778 39 27.75C39 29.3222 35.8725 31.5 30 31.5C24.1275 31.5 21 29.3222 21 27.75C21 26.1778 24.1275 24 30 24ZM29.25 32.9869V35.9869C27.4688 35.9288 25.9688 35.6662 24.75 35.2847V32.3484C26.2192 32.7399 27.7299 32.9542 29.25 32.9869ZM30.75 32.9869C32.2701 32.9542 33.7808 32.7399 35.25 32.3484V35.2838C34.0312 35.6653 32.5312 35.9278 30.75 35.9859V32.9869ZM21 32.25V30.5184C21.472 30.9102 21.9887 31.2447 22.5394 31.515C22.7672 31.6284 23.0081 31.7353 23.25 31.8366V34.6875C21.7659 33.9525 21 33.0272 21 32.25ZM36.75 34.6875V31.8366C36.9947 31.7353 37.2328 31.6284 37.4606 31.515C38.0113 31.2447 38.528 30.9102 39 30.5184V32.25C39 33.0272 38.2341 33.9525 36.75 34.6875Z" fill="#F0F0F0"/>
</svg>
