<svg width="156" height="40" viewBox="0 0 156 40" fill="none" xmlns="http://www.w3.org/2000/svg">
<g clip-path="url(#clip0_375_51833)">
<mask id="mask0_375_51833" style="mask-type:luminance" maskUnits="userSpaceOnUse" x="0" y="0" width="39" height="40">
<path d="M38.3116 0H0.5V40H38.3116V0Z" fill="white"/>
</mask>
<g mask="url(#mask0_375_51833)">
<path d="M25.748 12.66V15.3731C24.9448 15.214 24.1277 15.1335 23.3086 15.1329H13.3039C6.43111 15.1329 0.859863 20.6729 0.859863 27.5073C0.859863 27.5073 0.859863 27.5086 0.859863 27.5092V0.285522H13.3039C20.1768 0.285522 25.748 5.8256 25.748 12.66Z" fill="#01FAA8"/>
<path d="M25.748 15.3743V27.5111C25.7467 34.3454 20.1742 39.8843 13.3014 39.883C6.42858 39.8817 0.858599 34.3404 0.859863 27.506C0.861128 20.6729 6.43237 15.1341 13.3039 15.1341H23.3055C24.1245 15.1341 24.9416 15.2146 25.7448 15.3743" fill="#07D6F2"/>
<path d="M25.8232 15.3819H25.7986V27.5092C25.7986 34.3436 20.2261 39.883 13.3539 39.883H25.8239C32.6278 39.883 38.1434 34.3983 38.1434 27.6325C38.1434 20.8666 32.6278 15.3819 25.8239 15.3819" fill="#0037FF"/>
</g>
<path d="M46.4304 37.3146L46.0604 38.6227H51.3236L50.9739 39.9315H44.3951L46.1635 33.3895H52.7422L52.3925 34.6977H47.1292L46.7795 36.0058H50.7272L50.3775 37.3139H46.4297L46.4304 37.3146Z" fill="white"/>
<path d="M60.9046 36.6605L59.3216 33.3895H60.9666L62.0152 35.5769L64.256 33.3895H65.9009L62.5496 36.6605L64.1326 39.9315H62.4876L61.439 37.7441L59.1983 39.9315H57.5533L60.9046 36.6605Z" fill="white"/>
<path d="M72.0275 39.9315H70.7114L72.4797 33.3895H79.0584L78.0098 37.3146H72.7466L72.0269 39.9315H72.0275ZM77.0441 36.0058L77.3938 34.6977H73.4461L73.0963 36.0058H77.0441Z" fill="white"/>
<path d="M90.4488 39.9315H83.8701L85.6384 33.3895H86.9545L85.5359 38.6233H89.483L89.853 37.3152H91.1692L90.4494 39.9321L90.4488 39.9315Z" fill="white"/>
<path d="M97.0275 39.9315L98.7959 33.3895H105.375L103.606 39.9315H97.0275ZM102.641 38.6227L103.709 34.6977H99.7616L98.6928 38.6227H102.64H102.641Z" fill="white"/>
<path d="M113.537 37.3146H112.221L111.501 39.9315H110.185L111.953 33.3895H118.532L117.484 37.3146H115.161L116.764 39.9315H115.14L113.536 37.3146H113.537ZM112.92 34.6977L112.571 36.0058H116.518L116.868 34.6977H112.92Z" fill="white"/>
<path d="M125.379 37.3146L125.009 38.6227H130.272L129.922 39.9315H123.344L125.112 33.3895H131.691L131.341 34.6977H126.078L125.728 36.0058H129.676L129.326 37.3139H125.378L125.379 37.3146Z" fill="white"/>
<path d="M139.853 37.3146H138.537L137.817 39.9315H136.501L138.27 33.3895H144.848L143.8 37.3146H141.477L143.081 39.9315H141.456L139.853 37.3146H139.853ZM139.237 34.6977L138.887 36.0058H142.835L143.184 34.6977H139.237Z" fill="white"/>
<path d="M47.4865 25.5948L54.7629 11.9656H54.7939L54.8021 11.9505H71.3413C71.5879 11.9505 71.7928 11.7977 71.9566 11.4914L73.1855 9.19465C73.3385 8.90912 73.2892 8.7607 73.0381 8.75064H56.4838L59.2849 3.54388H76.6096C79.9255 3.54388 80.7723 5.07025 79.1495 8.12236H79.1647L76.9606 12.2417C76.072 13.1687 74.5958 14.4605 72.942 14.5781C74.064 14.8718 74.7135 16.3397 74.2999 17.2202L72.4778 20.6484C70.7139 23.9256 68.1695 25.5639 64.8428 25.5639L47.4865 25.5948ZM68.5705 17.1573L57.3667 17.1724L55.6546 20.3729L66.8585 20.3578C67.1051 20.3578 67.31 20.205 67.4738 19.8987L68.7027 17.6019C68.8557 17.3164 68.8115 17.168 68.5705 17.1579V17.1573Z" fill="white"/>
<path d="M77.8687 25.5797L75.1783 25.5558L85.6403 4.82372L86.3094 3.54388H108.572L107.781 4.81994L97.314 25.6187L95.4654 25.5797H77.8687ZM84.8017 23.5401H89.7967L98.78 5.63187H93.785L84.8017 23.5401Z" fill="white"/>
<path d="M103.134 25.5797L101.805 25.5551L112.294 4.79981L112.873 3.60614L121.494 3.63255L111.776 22.959H116.771L120.696 15.1957L121.239 14.1027L126.901 19.7679L124.024 25.5797H103.134Z" fill="white"/>
<path d="M129.502 21.2873L137.408 5.61174H130.201L128.229 3.61243H155.5L153.528 5.61174H145.999L135.785 25.9243L135.243 27.0016L129.502 21.2873Z" fill="white"/>
</g>
<defs>
<clipPath id="clip0_375_51833">
<rect width="155" height="40" fill="white" transform="translate(0.5)"/>
</clipPath>
</defs>
</svg>
