<svg width="51" height="50" viewBox="0 0 51 50" fill="none" xmlns="http://www.w3.org/2000/svg">
<circle cx="25.0967" cy="25" r="25" fill="#414145"/>
<ellipse cx="19.8239" cy="25.0007" rx="11.6667" ry="11.6667" stroke="white" stroke-width="3"/>
<ellipse cx="30.3693" cy="25.0007" rx="11.6667" ry="11.6667" stroke="white" stroke-width="3"/>
<path d="M25.0967 35.4099L24.4179 36.7475L25.0967 37.092L25.7755 36.7475L25.0967 35.4099ZM25.0967 14.5898L25.7755 13.2522L25.0967 12.9077L24.4178 13.2522L25.0967 14.5898ZM29.9907 24.9999C29.9907 28.9592 27.7278 32.3925 24.4179 34.0723L25.7755 36.7475C30.0537 34.5764 32.9907 30.1324 32.9907 24.9999H29.9907ZM24.4178 15.9274C27.7278 17.6072 29.9907 21.0406 29.9907 24.9999H32.9907C32.9907 19.8673 30.0537 15.4234 25.7755 13.2522L24.4178 15.9274ZM20.2026 24.9999C20.2026 21.0406 22.4656 17.6072 25.7755 15.9274L24.4178 13.2522C20.1397 15.4234 17.2026 19.8673 17.2026 24.9999H20.2026ZM25.7755 34.0723C22.4656 32.3925 20.2026 28.9592 20.2026 24.9999H17.2026C17.2026 30.1324 20.1397 34.5764 24.4179 36.7475L25.7755 34.0723Z" fill="#11FFF5"/>
</svg>
