<svg width="51" height="50" viewBox="0 0 51 50" fill="none" xmlns="http://www.w3.org/2000/svg">
<circle cx="25.0967" cy="25" r="25" fill="#414145"/>
<path d="M17.6264 17.0836L15.1123 19.5977L12.5981 17.0836" stroke="white" stroke-width="3" stroke-linecap="round" stroke-linejoin="round"/>
<path d="M32.421 32.9184L34.9351 30.4043L37.4492 32.9184" stroke="white" stroke-width="3" stroke-linecap="round" stroke-linejoin="round"/>
<path d="M15.1126 19.5977V17.1615C15.1126 16.7239 15.1126 16.0239 15.1126 15.2895C15.1126 13.6326 16.4559 12.2893 18.1128 12.2893C18.5403 12.2893 18.925 12.2893 19.1925 12.2893H30.6343" stroke="white" stroke-width="3" stroke-linecap="round" stroke-linejoin="round"/>
<path d="M34.9348 30.4043V32.8406C34.9348 33.2783 34.9348 33.9785 34.9348 34.7131C34.9348 36.37 33.5915 37.7133 31.9346 37.7133C31.5071 37.7133 31.1224 37.7133 30.8548 37.7133H19.4131" stroke="white" stroke-width="3" stroke-linecap="round" stroke-linejoin="round"/>
<path d="M18.8899 28.3573C18.8899 30.3495 17.2748 31.9646 15.2826 31.9646C13.2903 31.9646 11.6753 30.3495 11.6753 28.3573C11.6753 26.365 13.2903 24.75 15.2826 24.75C17.2748 24.75 18.8899 26.365 18.8899 28.3573Z" stroke="#11FFF5" stroke-width="3"/>
<path d="M38.5183 21.6444C38.5183 23.6366 36.9032 25.2517 34.911 25.2517C32.9187 25.2517 31.3037 23.6366 31.3037 21.6444C31.3037 19.6521 32.9187 18.0371 34.911 18.0371C36.9032 18.0371 38.5183 19.6521 38.5183 21.6444Z" stroke="#11FFF5" stroke-width="3"/>
</svg>
