<svg width="25" height="25" viewBox="0 0 25 25" fill="none" xmlns="http://www.w3.org/2000/svg">
<path d="M3.53516 6.41797H5.53516H21.5352" stroke="#FFA600" stroke-width="2" stroke-linecap="round" stroke-linejoin="round"/>
<path d="M19.5352 6.41797V20.418C19.5352 20.9484 19.3244 21.4571 18.9494 21.8322C18.5743 22.2073 18.0656 22.418 17.5352 22.418H7.53516C7.00472 22.418 6.49602 22.2073 6.12094 21.8322C5.74587 21.4571 5.53516 20.9484 5.53516 20.418V6.41797M8.53516 6.41797V4.41797C8.53516 3.88754 8.74587 3.37883 9.12094 3.00376C9.49602 2.62868 10.0047 2.41797 10.5352 2.41797H14.5352C15.0656 2.41797 15.5743 2.62868 15.9494 3.00376C16.3244 3.37883 16.5352 3.88754 16.5352 4.41797V6.41797" stroke="#FFA600" stroke-width="2" stroke-linecap="round" stroke-linejoin="round"/>
<path d="M10.5352 11.418V17.418" stroke="#FFA600" stroke-width="2" stroke-linecap="round" stroke-linejoin="round"/>
<path d="M14.5352 11.418V17.418" stroke="#FFA600" stroke-width="2" stroke-linecap="round" stroke-linejoin="round"/>
</svg>
