<svg width="60" height="60" viewBox="0 0 60 60" fill="none" xmlns="http://www.w3.org/2000/svg">
<path d="M30 60C46.5685 60 60 46.5685 60 30C60 13.4315 46.5685 0 30 0C13.4315 0 0 13.4315 0 30C0 46.5685 13.4315 60 30 60Z" fill="#ABA7BD"/>
<path d="M28 31C28.4295 31.5741 28.9774 32.0491 29.6066 32.3929C30.2357 32.7367 30.9315 32.9411 31.6467 32.9923C32.3618 33.0435 33.0796 32.9403 33.7513 32.6897C34.4231 32.4392 35.0331 32.047 35.54 31.54L38.54 28.54C39.4508 27.597 39.9548 26.3339 39.9434 25.023C39.932 23.712 39.4061 22.4579 38.4791 21.5309C37.5521 20.6038 36.298 20.078 34.987 20.0666C33.676 20.0552 32.413 20.5592 31.47 21.47L29.75 23.18" stroke="#F0F0F0" stroke-width="2" stroke-linecap="round" stroke-linejoin="round"/>
<path d="M32.0002 29C31.5707 28.4259 31.0228 27.9508 30.3936 27.607C29.7645 27.2633 29.0687 27.0589 28.3535 27.0076C27.6384 26.9564 26.9206 27.0596 26.2489 27.3102C25.5771 27.5608 24.9671 27.9529 24.4602 28.46L21.4602 31.46C20.5494 32.403 20.0454 33.666 20.0568 34.977C20.0682 36.288 20.5941 37.542 21.5211 38.4691C22.4481 39.3961 23.7022 39.922 25.0132 39.9334C26.3242 39.9447 27.5872 39.4408 28.5302 38.53L30.2402 36.82" stroke="#F0F0F0" stroke-width="2" stroke-linecap="round" stroke-linejoin="round"/>
</svg>
