<svg width="426" height="65" viewBox="0 0 426 65" fill="none" xmlns="http://www.w3.org/2000/svg">
<path d="M3.53977 51H1.53977V53H3.53977V51ZM3.53977 10.2727V8.27273H1.53977V10.2727H3.53977ZM27.3438 11.6051L26.5326 13.4332L27.3438 11.6051ZM31.858 15.304L30.1724 16.3805L30.1765 16.3869L31.858 15.304ZM32.4148 24.9091L34.1795 25.8503L34.1838 25.8422L32.4148 24.9091ZM29.7898 27.8523L30.922 29.5009L30.9262 29.4981L29.7898 27.8523ZM26.0114 29.4631L25.5736 27.5116L24.0114 27.862V29.4631H26.0114ZM26.0114 29.8608H24.0114V31.7771L25.926 31.859L26.0114 29.8608ZM30.3665 31.1733L29.34 32.8898L29.3473 32.8941L30.3665 31.1733ZM33.6875 34.5739L31.9588 35.5797L31.9628 35.5865L33.6875 34.5739ZM33.3494 45.5312L31.6594 44.4618L31.6572 44.4653L33.3494 45.5312ZM28.6364 49.5284L27.7837 47.7193L28.6364 49.5284ZM12.1506 43.9602H10.1506V45.9602H12.1506V43.9602ZM24.4205 42.5881L25.699 44.126L25.7044 44.1215L25.7099 44.1169L24.4205 42.5881ZM25.2557 35.9062L23.5641 36.9733L25.2557 35.9062ZM22.929 33.8778L22.0441 35.6715L22.0535 35.6761L22.929 33.8778ZM12.1506 33.142V31.142H10.1506V33.142H12.1506ZM12.1506 27.3153H10.1506V29.3153H12.1506V27.3153ZM21.6761 26.6989L22.4958 28.5232L22.5077 28.5178L21.6761 26.6989ZM23.8636 24.9091L22.2305 23.7546L22.2238 23.7641L22.2172 23.7736L23.8636 24.9091ZM23.108 18.5852L21.7937 20.0928L21.8032 20.101L23.108 18.5852ZM12.1506 17.233V15.233H10.1506V17.233H12.1506ZM5.53977 51V10.2727H1.53977V51H5.53977ZM3.53977 12.2727H19.8466V8.27273H3.53977V12.2727ZM19.8466 12.2727C22.6601 12.2727 24.8618 12.6919 26.5326 13.4332L28.1549 9.77699C25.822 8.74184 23.0255 8.27273 19.8466 8.27273V12.2727ZM26.5326 13.4332C28.2379 14.1899 29.4101 15.1869 30.1724 16.3805L33.5435 14.2275C32.2906 12.2657 30.4534 10.7968 28.1549 9.77699L26.5326 13.4332ZM30.1765 16.3869C30.9561 17.5973 31.3693 19.0167 31.3693 20.7131H35.3693C35.3693 18.3261 34.775 16.1394 33.5394 14.221L30.1765 16.3869ZM31.3693 20.7131C31.3693 22.033 31.107 23.1016 30.6458 23.976L34.1838 25.8422C34.9953 24.3037 35.3693 22.5749 35.3693 20.7131H31.3693ZM30.6501 23.9679C30.164 24.8792 29.5046 25.6188 28.6534 26.2065L30.9262 29.4981C32.3022 28.5479 33.3928 27.3253 34.1795 25.8503L30.6501 23.9679ZM28.6576 26.2036C27.7853 26.8026 26.7658 27.2442 25.5736 27.5116L26.4491 31.4146C28.0941 31.0456 29.5935 30.4133 30.922 29.5009L28.6576 26.2036ZM24.0114 29.4631V29.8608H28.0114V29.4631H24.0114ZM25.926 31.859C27.1397 31.9108 28.2687 32.2491 29.34 32.8898L31.393 29.4568C29.7597 28.4801 27.9853 27.9433 26.0968 27.8626L25.926 31.859ZM29.3473 32.8941C30.4006 33.5179 31.2708 34.3971 31.9588 35.5797L35.4162 33.5681C34.4073 31.834 33.0634 30.4461 31.3856 29.4524L29.3473 32.8941ZM31.9628 35.5865C32.5988 36.6697 32.9602 38.0289 32.9602 39.7443H36.9602C36.9602 37.4559 36.4732 35.3682 35.4122 33.5612L31.9628 35.5865ZM32.9602 39.7443C32.9602 41.5567 32.5153 43.1092 31.6594 44.4618L35.0395 46.6007C36.3313 44.5593 36.9602 42.2539 36.9602 39.7443H32.9602ZM31.6572 44.4653C30.8301 45.7783 29.5752 46.8749 27.7837 47.7193L29.4891 51.3375C31.8604 50.2198 33.7476 48.6516 35.0417 46.5972L31.6572 44.4653ZM27.7837 47.7193C26.0408 48.5407 23.7862 49 20.9403 49V53C24.1929 53 27.069 52.4782 29.4891 51.3375L27.7837 47.7193ZM20.9403 49H3.53977V53H20.9403V49ZM12.1506 45.9602H19.1705V41.9602H12.1506V45.9602ZM19.1705 45.9602C21.7465 45.9602 24.0661 45.4835 25.699 44.126L23.1419 41.0501C22.5741 41.5222 21.3936 41.9602 19.1705 41.9602V45.9602ZM25.7099 44.1169C27.2948 42.7803 28.071 40.9706 28.071 38.8892H24.071C24.071 39.8836 23.7469 40.5398 23.1311 41.0592L25.7099 44.1169ZM28.071 38.8892C28.071 37.4261 27.7133 36.0537 26.9473 34.8392L23.5641 36.9733C23.8852 37.4823 24.071 38.0986 24.071 38.8892H28.071ZM26.9473 34.8392C26.1855 33.6315 25.1122 32.7163 23.8044 32.0796L22.0535 35.6761C22.7609 36.0204 23.2388 36.4575 23.5641 36.9733L26.9473 34.8392ZM23.8138 32.0842C22.4855 31.4289 20.9819 31.142 19.3693 31.142V35.142C20.5143 35.142 21.3838 35.3457 22.0441 35.6715L23.8138 32.0842ZM19.3693 31.142H12.1506V35.142H19.3693V31.142ZM10.1506 33.142V43.9602H14.1506V33.142H10.1506ZM12.1506 29.3153H18.5341V25.3153H12.1506V29.3153ZM18.5341 29.3153C19.9472 29.3153 21.2818 29.0686 22.4958 28.5232L20.8565 24.8745C20.241 25.1511 19.4808 25.3153 18.5341 25.3153V29.3153ZM22.5077 28.5178C23.7327 27.9578 24.7561 27.1378 25.5101 26.0446L22.2172 23.7736C21.9106 24.2182 21.4756 24.5915 20.8446 24.8799L22.5077 28.5178ZM25.4968 26.0636C26.3116 24.9109 26.679 23.572 26.679 22.1449H22.679C22.679 22.8655 22.5028 23.3694 22.2305 23.7546L25.4968 26.0636ZM26.679 22.1449C26.679 20.1339 25.933 18.378 24.4127 17.0694L21.8032 20.101C22.3776 20.5954 22.679 21.2127 22.679 22.1449H26.679ZM24.4222 17.0777C22.9032 15.7534 20.8968 15.233 18.6932 15.233V19.233C20.3077 19.233 21.2445 19.614 21.7937 20.0928L24.4222 17.0777ZM18.6932 15.233H12.1506V19.233H18.6932V15.233ZM10.1506 17.233V27.3153H14.1506V17.233H10.1506ZM43.9041 50.5625L43.0801 52.3849L43.0867 52.3878L43.0933 52.3908L43.9041 50.5625ZM40.2848 47.5199L38.6057 48.6064L38.6119 48.616L38.6182 48.6255L40.2848 47.5199ZM39.907 38.1932L38.1473 37.2426L39.907 38.1932ZM42.4524 35.4091L41.3574 33.7355L42.4524 35.4091ZM46.1115 33.8182L45.6089 31.8823L45.6044 31.8835L46.1115 33.8182ZM50.4467 33.0625L50.6388 35.0533L50.6467 35.0525L50.6546 35.0517L50.4467 33.0625ZM54.7422 32.5455L55.0318 34.5244L55.0436 34.5227L55.0553 34.5208L54.7422 32.5455ZM57.1087 31.7898L55.989 30.1326L55.9889 30.1326L57.1087 31.7898ZM56.6513 27.2756L55.3289 28.776L55.3351 28.7815L55.3414 28.7869L56.6513 27.2756ZM49.6712 27.2557L50.8559 28.867L50.8636 28.8614L50.8712 28.8557L49.6712 27.2557ZM47.8814 29.7614L47.7195 31.7548L49.3482 31.8871L49.8025 30.3175L47.8814 29.7614ZM40.0462 29.125L38.0906 28.7059L37.6131 30.934L39.8843 31.1184L40.0462 29.125ZM42.3928 24.3125L43.9071 25.619L43.9134 25.6116L42.3928 24.3125ZM46.907 21.1705L47.6428 23.0302L47.6497 23.0274L46.907 21.1705ZM58.2223 20.6534L57.7256 22.5907L57.7295 22.5917L58.2223 20.6534ZM62.3786 22.5028L61.2401 24.1472L61.2485 24.153L62.3786 22.5028ZM65.2621 25.7244L63.4988 26.6684L63.5029 26.6758L65.2621 25.7244ZM66.316 51V53H68.316V51H66.316ZM58.282 51H56.282V53H58.282V51ZM58.282 46.7642H60.282V44.7642H58.282V46.7642ZM58.0433 46.7642V44.7642H56.8225L56.2645 45.8501L58.0433 46.7642ZM56.0746 49.2898L57.3881 50.7979L57.395 50.792L57.4018 50.7859L56.0746 49.2898ZM53.1115 50.9801L53.7635 52.8709L53.7732 52.8675L53.7828 52.8641L53.1115 50.9801ZM54.8416 44.9943L55.7558 46.7732L55.7655 46.7682L55.7751 46.7631L54.8416 44.9943ZM57.0888 42.9659L55.4047 41.8871L57.0888 42.9659ZM57.9041 36.8409H59.9041V33.1555L56.8141 35.164L57.9041 36.8409ZM56.8104 37.3182L57.3747 39.2369L57.3924 39.2317L57.41 39.2262L56.8104 37.3182ZM55.2791 37.696L55.6449 39.6623L55.6669 39.6582L55.6888 39.6536L55.2791 37.696ZM53.5689 37.9943L53.8453 39.9751L53.8678 39.972L53.8902 39.9683L53.5689 37.9943ZM52.0178 38.2131L51.7349 36.2332L51.7275 36.2342L52.0178 38.2131ZM49.4126 38.9091L50.2005 40.7474L49.4126 38.9091ZM47.6825 40.2017L49.2634 41.4268L49.2707 41.4174L49.2778 41.4079L47.6825 40.2017ZM48.3189 44.8352L47.1395 46.4505L47.1539 46.461L47.1685 46.4713L48.3189 44.8352ZM49.1143 49.5767C47.3982 49.5767 45.9448 49.2797 44.7149 48.7342L43.0933 52.3908C44.9127 53.1976 46.9328 53.5767 49.1143 53.5767V49.5767ZM44.7281 48.7401C43.5313 48.199 42.623 47.4266 41.9514 46.4143L38.6182 48.6255C39.7232 50.2912 41.2277 51.5472 43.0801 52.3849L44.7281 48.7401ZM41.9639 46.4334C41.3453 45.4774 40.9723 44.195 40.9723 42.4688H36.9723C36.9723 44.7728 37.4743 46.8579 38.6057 48.6064L41.9639 46.4334ZM40.9723 42.4688C40.9723 41.0088 41.2409 39.9317 41.6666 39.1438L38.1473 37.2426C37.3268 38.7614 36.9723 40.5348 36.9723 42.4688H40.9723ZM41.6666 39.1438C42.1353 38.2763 42.758 37.5993 43.5475 37.0827L41.3574 33.7355C39.9991 34.6242 38.9249 35.8033 38.1473 37.2426L41.6666 39.1438ZM43.5475 37.0827C44.4236 36.5094 45.4411 36.0615 46.6186 35.7528L45.6044 31.8835C44.0508 32.2908 42.629 32.9035 41.3574 33.7355L43.5475 37.0827ZM46.6141 35.754C47.8845 35.4242 49.2254 35.1896 50.6388 35.0533L50.2546 31.0717C48.6453 31.227 47.096 31.4963 45.6089 31.8824L46.6141 35.754ZM50.6546 35.0517C52.4438 34.8647 53.9061 34.6891 55.0318 34.5244L54.4526 30.5665C53.4041 30.72 52.0027 30.8891 50.2389 31.0733L50.6546 35.0517ZM55.0553 34.5208C56.2248 34.3354 57.3674 34.0287 58.2284 33.4469L55.9889 30.1326C55.8688 30.2137 55.4339 30.4108 54.429 30.5701L55.0553 34.5208ZM58.2284 33.4469C59.3296 32.7029 59.8445 31.556 59.8445 30.3182H55.8445C55.8445 30.3894 55.832 30.3581 55.8717 30.2789C55.8904 30.2414 55.9144 30.2065 55.9404 30.1774C55.9659 30.149 55.9852 30.1351 55.989 30.1326L58.2284 33.4469ZM59.8445 30.3182V30.1989H55.8445V30.3182H59.8445ZM59.8445 30.1989C59.8445 28.4844 59.2813 26.9083 57.9611 25.7642L55.3414 28.7869C55.6122 29.0216 55.8445 29.3944 55.8445 30.1989H59.8445ZM57.9737 25.7752C56.7063 24.6581 55.0544 24.2415 53.3104 24.2415V28.2415C54.4565 28.2415 55.0319 28.5142 55.3289 28.776L57.9737 25.7752ZM53.3104 24.2415C51.5039 24.2415 49.8228 24.642 48.4712 25.6557L50.8712 28.8557C51.3226 28.5171 52.0676 28.2415 53.3104 28.2415V24.2415ZM48.4864 25.6444C47.2552 26.5497 46.3829 27.7452 45.9603 29.2052L49.8025 30.3175C49.9632 29.7624 50.2841 29.2875 50.8559 28.867L48.4864 25.6444ZM48.0433 27.7679L40.2081 27.1316L39.8843 31.1184L47.7195 31.7548L48.0433 27.7679ZM42.0018 29.5441C42.3337 27.9949 42.9734 26.7012 43.9071 25.619L40.8784 23.006C39.4788 24.6284 38.554 26.543 38.0906 28.7059L42.0018 29.5441ZM43.9134 25.6116C44.8468 24.5191 46.0714 23.6519 47.6428 23.0302L46.1711 19.3107C44.0569 20.1473 42.272 21.3749 40.8722 23.0134L43.9134 25.6116ZM47.6497 23.0274C49.2238 22.3978 51.1107 22.0568 53.3501 22.0568V18.0568C50.7108 18.0568 48.3023 18.4583 46.1642 19.3135L47.6497 23.0274ZM53.3501 22.0568C54.8895 22.0568 56.3461 22.237 57.7256 22.5907L58.7191 18.7161C56.9962 18.2743 55.2047 18.0568 53.3501 18.0568V22.0568ZM57.7295 22.5917C59.086 22.9366 60.2483 23.4606 61.2401 24.1472L63.517 20.8585C62.0959 19.8746 60.4874 19.1657 58.7151 18.7151L57.7295 22.5917ZM61.2485 24.153C62.2016 24.8057 62.9465 25.6366 63.4989 26.6684L67.0253 24.7805C66.1724 23.1873 64.9949 21.8705 63.5086 20.8527L61.2485 24.153ZM63.5029 26.6758C64.0151 27.6231 64.316 28.8383 64.316 30.3977H68.316C68.316 28.3246 67.9143 26.4243 67.0213 24.773L63.5029 26.6758ZM64.316 30.3977V51H68.316V30.3977H64.316ZM66.316 49H58.282V53H66.316V49ZM60.282 51V46.7642H56.282V51H60.282ZM58.282 44.7642H58.0433V48.7642H58.282V44.7642ZM56.2645 45.8501C55.8899 46.579 55.3885 47.2248 54.7473 47.7936L57.4018 50.7859C58.4046 49.8964 59.2157 48.8585 59.8222 47.6783L56.2645 45.8501ZM54.761 47.7816C54.1496 48.3141 53.3868 48.7588 52.4402 49.0961L53.7828 52.8641C55.143 52.3794 56.3556 51.6972 57.3881 50.7979L54.761 47.7816ZM52.4595 49.0894C51.5591 49.3999 50.4547 49.5767 49.1143 49.5767V53.5767C50.7967 53.5767 52.3571 53.3558 53.7635 52.8709L52.4595 49.0894ZM51.5405 47.7301C53.0533 47.7301 54.476 47.4308 55.7558 46.7732L53.9275 43.2155C53.2981 43.5389 52.5201 43.7301 51.5405 43.7301V47.7301ZM55.7751 46.7631C57.0128 46.1099 58.0297 45.2048 58.7728 44.0448L55.4047 41.8871C55.0608 42.4239 54.5795 42.8712 53.9081 43.2255L55.7751 46.7631ZM58.7728 44.0448C59.5364 42.8528 59.9041 41.5124 59.9041 40.0824H55.9041C55.9041 40.8001 55.7282 41.382 55.4047 41.8871L58.7728 44.0448ZM59.9041 40.0824V36.8409H55.9041V40.0824H59.9041ZM56.8141 35.164C56.7597 35.1994 56.5839 35.2929 56.2107 35.4102L57.41 39.2262C57.9649 39.0518 58.5183 38.8271 58.9941 38.5178L56.8141 35.164ZM56.246 35.3995C55.8566 35.514 55.3992 35.6276 54.8694 35.7384L55.6888 39.6536C56.2992 39.5259 56.8626 39.3875 57.3747 39.2369L56.246 35.3995ZM54.9133 35.7298C54.358 35.8331 53.8027 35.9299 53.2475 36.0203L53.8902 39.9683C54.4752 39.8731 55.0601 39.7711 55.6449 39.6623L54.9133 35.7298ZM53.2925 36.0135C52.7207 36.0933 52.2015 36.1665 51.7349 36.2332L52.3006 40.193C52.762 40.127 53.2769 40.0544 53.8453 39.9751L53.2925 36.0135ZM51.7275 36.2342C50.6017 36.3994 49.5595 36.6702 48.6248 37.0708L50.2005 40.7474C50.7507 40.5116 51.4451 40.3185 52.308 40.1919L51.7275 36.2342ZM48.6248 37.0708C47.6223 37.5004 46.7437 38.1273 46.0872 38.9955L49.2778 41.4079C49.4433 41.189 49.7181 40.9541 50.2005 40.7474L48.6248 37.0708ZM46.1017 38.9766C45.371 39.9194 45.0661 41.0367 45.0661 42.1903H49.0661C49.0661 41.7531 49.1721 41.5446 49.2634 41.4268L46.1017 38.9766ZM45.0661 42.1903C45.0661 43.8972 45.7235 45.4166 47.1395 46.4505L49.4983 43.22C49.2438 43.0342 49.0661 42.7903 49.0661 42.1903H45.0661ZM47.1685 46.4713C48.4304 47.3586 49.9342 47.7301 51.5405 47.7301V43.7301C50.5483 43.7301 49.9043 43.5051 49.4692 43.1992L47.1685 46.4713ZM81.3601 10.2727H83.3601V8.27273H81.3601V10.2727ZM81.3601 51V53H83.3601V51H81.3601ZM72.8885 51H70.8885V53H72.8885V51ZM72.8885 10.2727V8.27273H70.8885V10.2727H72.8885ZM79.3601 10.2727V51H83.3601V10.2727H79.3601ZM81.3601 49H72.8885V53H81.3601V49ZM74.8885 51V10.2727H70.8885V51H74.8885ZM72.8885 12.2727H81.3601V8.27273H72.8885V12.2727ZM91.6463 50.5625L90.8223 52.3849L90.8289 52.3878L90.8355 52.3908L91.6463 50.5625ZM88.027 47.5199L86.3478 48.6064L86.354 48.616L86.3604 48.6255L88.027 47.5199ZM87.6491 38.1932L85.8895 37.2426L87.6491 38.1932ZM90.1946 35.4091L89.0995 33.7355L90.1946 35.4091ZM93.8537 33.8182L93.3511 31.8823L93.3466 31.8835L93.8537 33.8182ZM98.1889 33.0625L98.381 35.0533L98.3889 35.0525L98.3967 35.0517L98.1889 33.0625ZM102.484 32.5455L102.774 34.5244L102.786 34.5227L102.798 34.5208L102.484 32.5455ZM104.851 31.7898L103.731 30.1326V30.1326L104.851 31.7898ZM104.393 27.2756L103.071 28.776L103.077 28.7815L103.084 28.7869L104.393 27.2756ZM97.4134 27.2557L98.5981 28.867L98.6058 28.8614L98.6133 28.8557L97.4134 27.2557ZM95.6236 29.7614L95.4617 31.7548L97.0903 31.8871L97.5447 30.3175L95.6236 29.7614ZM87.7884 29.125L85.8327 28.7059L85.3553 30.934L87.6264 31.1184L87.7884 29.125ZM90.1349 24.3125L91.6493 25.619L91.6555 25.6116L90.1349 24.3125ZM94.6491 21.1705L95.385 23.0302L95.3919 23.0274L94.6491 21.1705ZM105.964 20.6534L105.468 22.5907L105.472 22.5917L105.964 20.6534ZM110.121 22.5028L108.982 24.1472L108.991 24.153L110.121 22.5028ZM113.004 25.7244L111.241 26.6684L111.245 26.6758L113.004 25.7244ZM114.058 51V53H116.058V51H114.058ZM106.024 51H104.024V53H106.024V51ZM106.024 46.7642H108.024V44.7642H106.024V46.7642ZM105.786 46.7642V44.7642H104.565L104.007 45.8501L105.786 46.7642ZM103.817 49.2898L105.13 50.7979L105.137 50.792L105.144 50.7859L103.817 49.2898ZM100.854 50.9801L101.506 52.8709L101.515 52.8675L101.525 52.8641L100.854 50.9801ZM102.584 44.9943L103.498 46.7732L103.508 46.7682L103.517 46.7631L102.584 44.9943ZM104.831 42.9659L103.147 41.8871L104.831 42.9659ZM105.646 36.8409H107.646V33.1555L104.556 35.164L105.646 36.8409ZM104.553 37.3182L105.117 39.2369L105.135 39.2317L105.152 39.2262L104.553 37.3182ZM103.021 37.696L103.387 39.6623L103.409 39.6582L103.431 39.6536L103.021 37.696ZM101.311 37.9943L101.587 39.9751L101.61 39.972L101.632 39.9683L101.311 37.9943ZM99.7599 38.2131L99.4771 36.2332L99.4697 36.2342L99.7599 38.2131ZM97.1548 38.9091L97.9427 40.7474L97.1548 38.9091ZM95.4247 40.2017L97.0055 41.4268L97.0128 41.4174L97.02 41.4079L95.4247 40.2017ZM96.0611 44.8352L94.8817 46.4505L94.8961 46.461L94.9107 46.4713L96.0611 44.8352ZM96.8565 49.5767C95.1404 49.5767 93.687 49.2797 92.4571 48.7342L90.8355 52.3908C92.6548 53.1976 94.675 53.5767 96.8565 53.5767V49.5767ZM92.4703 48.7401C91.2735 48.199 90.3651 47.4266 89.6936 46.4143L86.3604 48.6255C87.4653 50.2912 88.9699 51.5472 90.8223 52.3849L92.4703 48.7401ZM89.7061 46.4334C89.0875 45.4774 88.7145 44.195 88.7145 42.4688H84.7145C84.7145 44.7728 85.2165 46.8579 86.3478 48.6064L89.7061 46.4334ZM88.7145 42.4688C88.7145 41.0088 88.9831 39.9317 89.4088 39.1438L85.8895 37.2426C85.069 38.7614 84.7145 40.5348 84.7145 42.4688H88.7145ZM89.4088 39.1438C89.8774 38.2763 90.5001 37.5993 91.2897 37.0827L89.0995 33.7355C87.7413 34.6242 86.6671 35.8033 85.8895 37.2426L89.4088 39.1438ZM91.2897 37.0827C92.1658 36.5094 93.1833 36.0615 94.3608 35.7528L93.3466 31.8835C91.793 32.2908 90.3711 32.9035 89.0995 33.7355L91.2897 37.0827ZM94.3563 35.754C95.6267 35.4242 96.9676 35.1896 98.381 35.0533L97.9968 31.0717C96.3875 31.227 94.8382 31.4963 93.3511 31.8824L94.3563 35.754ZM98.3967 35.0517C100.186 34.8647 101.648 34.6891 102.774 34.5244L102.195 30.5665C101.146 30.72 99.7449 30.8891 97.9811 31.0733L98.3967 35.0517ZM102.798 34.5208C103.967 34.3354 105.11 34.0287 105.971 33.4469L103.731 30.1326C103.611 30.2137 103.176 30.4108 102.171 30.5701L102.798 34.5208ZM105.971 33.4469C107.072 32.7029 107.587 31.556 107.587 30.3182H103.587C103.587 30.3894 103.574 30.3581 103.614 30.2789C103.633 30.2414 103.657 30.2065 103.683 30.1774C103.708 30.149 103.727 30.1351 103.731 30.1326L105.971 33.4469ZM107.587 30.3182V30.1989H103.587V30.3182H107.587ZM107.587 30.1989C107.587 28.4844 107.023 26.9083 105.703 25.7642L103.084 28.7869C103.354 29.0216 103.587 29.3944 103.587 30.1989H107.587ZM105.716 25.7752C104.448 24.6581 102.797 24.2415 101.053 24.2415V28.2415C102.199 28.2415 102.774 28.5142 103.071 28.776L105.716 25.7752ZM101.053 24.2415C99.2461 24.2415 97.5649 24.642 96.2133 25.6557L98.6133 28.8557C99.0648 28.5171 99.8098 28.2415 101.053 28.2415V24.2415ZM96.2286 25.6444C94.9974 26.5497 94.1251 27.7452 93.7025 29.2052L97.5447 30.3175C97.7054 29.7624 98.0263 29.2875 98.5981 28.867L96.2286 25.6444ZM95.7855 27.7679L87.9503 27.1316L87.6264 31.1184L95.4617 31.7548L95.7855 27.7679ZM89.744 29.5441C90.0759 27.9949 90.7156 26.7012 91.6493 25.619L88.6206 23.006C87.221 24.6284 86.2962 26.543 85.8327 28.7059L89.744 29.5441ZM91.6555 25.6116C92.589 24.5191 93.8136 23.6519 95.385 23.0302L93.9133 19.3107C91.7991 20.1473 90.0142 21.3749 88.6143 23.0134L91.6555 25.6116ZM95.3919 23.0274C96.966 22.3978 98.8529 22.0568 101.092 22.0568V18.0568C98.4529 18.0568 96.0444 18.4583 93.9064 19.3135L95.3919 23.0274ZM101.092 22.0568C102.632 22.0568 104.088 22.237 105.468 22.5907L106.461 18.7161C104.738 18.2743 102.947 18.0568 101.092 18.0568V22.0568ZM105.472 22.5917C106.828 22.9366 107.991 23.4606 108.982 24.1472L111.259 20.8585C109.838 19.8746 108.23 19.1657 106.457 18.7151L105.472 22.5917ZM108.991 24.153C109.944 24.8057 110.689 25.6366 111.241 26.6684L114.767 24.7805C113.915 23.1873 112.737 21.8705 111.251 20.8527L108.991 24.153ZM111.245 26.6758C111.757 27.6231 112.058 28.8383 112.058 30.3977H116.058C116.058 28.3246 115.657 26.4243 114.763 24.773L111.245 26.6758ZM112.058 30.3977V51H116.058V30.3977H112.058ZM114.058 49H106.024V53H114.058V49ZM108.024 51V46.7642H104.024V51H108.024ZM106.024 44.7642H105.786V48.7642H106.024V44.7642ZM104.007 45.8501C103.632 46.579 103.131 47.2248 102.49 47.7936L105.144 50.7859C106.147 49.8964 106.958 48.8585 107.564 47.6783L104.007 45.8501ZM102.503 47.7816C101.892 48.3141 101.129 48.7588 100.182 49.0961L101.525 52.8641C102.885 52.3794 104.098 51.6972 105.13 50.7979L102.503 47.7816ZM100.202 49.0894C99.3013 49.3999 98.1969 49.5767 96.8565 49.5767V53.5767C98.5389 53.5767 100.099 53.3558 101.506 52.8709L100.202 49.0894ZM99.2827 47.7301C100.796 47.7301 102.218 47.4308 103.498 46.7732L101.67 43.2155C101.04 43.5389 100.262 43.7301 99.2827 43.7301V47.7301ZM103.517 46.7631C104.755 46.1099 105.772 45.2048 106.515 44.0448L103.147 41.8871C102.803 42.4239 102.322 42.8712 101.65 43.2255L103.517 46.7631ZM106.515 44.0448C107.279 42.8528 107.646 41.5124 107.646 40.0824H103.646C103.646 40.8001 103.47 41.382 103.147 41.8871L106.515 44.0448ZM107.646 40.0824V36.8409H103.646V40.0824H107.646ZM104.556 35.164C104.502 35.1994 104.326 35.2929 103.953 35.4102L105.152 39.2262C105.707 39.0518 106.26 38.8271 106.736 38.5178L104.556 35.164ZM103.988 35.3995C103.599 35.514 103.141 35.6276 102.612 35.7384L103.431 39.6536C104.041 39.5259 104.605 39.3875 105.117 39.2369L103.988 35.3995ZM102.655 35.7298C102.1 35.8331 101.545 35.9299 100.99 36.0203L101.632 39.9683C102.217 39.8731 102.802 39.7711 103.387 39.6623L102.655 35.7298ZM101.035 36.0135C100.463 36.0933 99.9437 36.1665 99.4771 36.2332L100.043 40.193C100.504 40.127 101.019 40.0544 101.587 39.9751L101.035 36.0135ZM99.4697 36.2342C98.3439 36.3994 97.3017 36.6702 96.367 37.0708L97.9427 40.7474C98.4929 40.5116 99.1873 40.3185 100.05 40.1919L99.4697 36.2342ZM96.367 37.0708C95.3645 37.5004 94.4859 38.1273 93.8294 38.9955L97.02 41.4079C97.1855 41.189 97.4603 40.9541 97.9427 40.7474L96.367 37.0708ZM93.8439 38.9766C93.1132 39.9194 92.8082 41.0367 92.8082 42.1903H96.8082C96.8082 41.7531 96.9143 41.5446 97.0055 41.4268L93.8439 38.9766ZM92.8082 42.1903C92.8082 43.8972 93.4657 45.4166 94.8817 46.4505L97.2405 43.22C96.986 43.0342 96.8082 42.7903 96.8082 42.1903H92.8082ZM94.9107 46.4713C96.1726 47.3586 97.6764 47.7301 99.2827 47.7301V43.7301C98.2905 43.7301 97.6465 43.5051 97.2114 43.1992L94.9107 46.4713ZM129.102 33.3409L127.102 33.3207L127.102 33.3308V33.3409H129.102ZM129.102 51V53H131.102V51H129.102ZM120.631 51H118.631V53H120.631V51ZM120.631 20.4545V18.4545H118.631V20.4545H120.631ZM128.705 20.4545H130.705V18.4545H128.705V20.4545ZM128.705 25.8438H126.705V27.8438H128.705V25.8438ZM129.062 25.8438V27.8438H130.441L130.932 26.5552L129.062 25.8438ZM132.463 21.6278L133.553 23.3048L133.563 23.2983L132.463 21.6278ZM147.477 25.4261L145.694 26.3315L145.697 26.3371L147.477 25.4261ZM148.79 51V53H150.79V51H148.79ZM140.318 51H138.318V53H140.318V51ZM140.318 33.0625L138.318 33.0483L138.318 33.0554V33.0625H140.318ZM138.886 28.6875L137.409 30.0356L137.417 30.0448L138.886 28.6875ZM131.866 27.8324L130.888 26.0878L130.877 26.0943L131.866 27.8324ZM129.838 29.9801L128.064 29.0558L128.059 29.0654L129.838 29.9801ZM127.102 33.3409V51H131.102V33.3409H127.102ZM129.102 49H120.631V53H129.102V49ZM122.631 51V20.4545H118.631V51H122.631ZM120.631 22.4545H128.705V18.4545H120.631V22.4545ZM126.705 20.4545V25.8438H130.705V20.4545H126.705ZM128.705 27.8438H129.062V23.8438H128.705V27.8438ZM130.932 26.5552C131.457 25.1742 132.318 24.1073 133.553 23.3047L131.373 19.951C129.426 21.2166 128.02 22.9603 127.193 25.1323L130.932 26.5552ZM133.563 23.2983C134.769 22.504 136.298 22.0568 138.25 22.0568V18.0568C135.668 18.0568 133.339 18.657 131.363 19.9573L133.563 23.2983ZM138.25 22.0568C140.072 22.0568 141.56 22.4525 142.784 23.1727L144.812 19.725C142.881 18.5891 140.67 18.0568 138.25 18.0568V22.0568ZM142.784 23.1727C144.014 23.8959 144.982 24.9287 145.694 26.3315L149.261 24.5208C148.223 22.4766 146.738 20.8578 144.812 19.725L142.784 23.1727ZM145.697 26.3371C146.397 27.7067 146.79 29.4216 146.79 31.5511H150.79C150.79 28.9345 150.307 26.5661 149.258 24.5152L145.697 26.3371ZM146.79 31.5511V51H150.79V31.5511H146.79ZM148.79 49H140.318V53H148.79V49ZM142.318 51V33.0625H138.318V51H142.318ZM142.318 33.0767C142.334 30.8619 141.764 28.855 140.355 27.3302L137.417 30.0448C137.944 30.6147 138.329 31.5245 138.318 33.0483L142.318 33.0767ZM140.364 27.3394C138.948 25.7877 137.037 25.0966 134.889 25.0966V29.0966C136.136 29.0966 136.889 29.4661 137.409 30.0356L140.364 27.3394ZM134.889 25.0966C133.454 25.0966 132.101 25.408 130.888 26.0878L132.844 29.5769C133.382 29.2757 134.044 29.0966 134.889 29.0966V25.0966ZM130.877 26.0943C129.657 26.7886 128.72 27.7986 128.064 29.0558L131.612 30.9044C131.938 30.279 132.352 29.8573 132.856 29.5705L130.877 26.0943ZM128.059 29.0654C127.408 30.3324 127.118 31.7751 127.102 33.3207L131.102 33.3611C131.113 32.2817 131.314 31.4839 131.617 30.8948L128.059 29.0654ZM161.194 49.608L160.168 51.3248L160.18 51.3318L161.194 49.608ZM156.023 44.0398L154.237 44.9382L154.241 44.9461L156.023 44.0398ZM156.043 27.6136L154.265 26.6994L154.263 26.7032L156.043 27.6136ZM161.234 22.0653L162.252 23.7866L162.26 23.7821L161.234 22.0653ZM176.228 21.5085L177.098 19.7079V19.7079L176.228 21.5085ZM180.981 25.5852L179.317 26.6946L180.981 25.5852ZM182.91 31.75V33.75H185.013L184.907 31.649L182.91 31.75ZM174.915 31.75L172.937 32.0425L173.189 33.75H174.915V31.75ZM173.126 28.071L171.721 29.4951L171.731 29.5049L171.741 29.5146L173.126 28.071ZM165.927 27.733L167.102 29.3514L167.106 29.3485L165.927 27.733ZM163.64 40.6989L161.776 41.4229L161.779 41.4307L161.782 41.4385L163.64 40.6989ZM165.927 43.821L167.106 42.2054L165.927 43.821ZM171.972 44.2983L171.066 42.5155L171.053 42.5219L171.972 44.2983ZM173.901 42.5682L172.242 41.4522L172.237 41.4588L173.901 42.5682ZM174.915 39.804V37.804H173.19L172.937 39.5109L174.915 39.804ZM182.91 39.804L184.907 39.9174L185.027 37.804H182.91V39.804ZM181.001 45.9688L179.318 44.8885L179.315 44.8917L181.001 45.9688ZM176.327 50.1051L175.433 48.3163L176.327 50.1051ZM169.268 49.5966C166.425 49.5966 164.099 48.9964 162.208 47.8841L160.18 51.3318C162.796 52.871 165.853 53.5966 169.268 53.5966V49.5966ZM162.22 47.8912C160.31 46.7496 158.845 45.1775 157.806 43.1334L154.241 44.9461C155.614 47.6482 157.597 49.7883 160.168 51.3247L162.22 47.8912ZM157.81 43.1414C156.778 41.0891 156.234 38.6744 156.234 35.8466H152.234C152.234 39.1968 152.882 42.2442 154.237 44.9382L157.81 43.1414ZM156.234 35.8466C156.234 32.9774 156.786 30.5554 157.824 28.524L154.263 26.7032C152.888 29.3916 152.234 32.4582 152.234 35.8466H156.234ZM157.822 28.5279C158.874 26.4812 160.344 24.9154 162.252 23.7866L160.215 20.3441C157.642 21.8668 155.652 23.9998 154.265 26.6994L157.822 28.5279ZM162.26 23.7821C164.137 22.66 166.433 22.0568 169.228 22.0568V18.0568C165.844 18.0568 162.811 18.7927 160.208 20.3486L162.26 23.7821ZM169.228 22.0568C171.65 22.0568 173.676 22.4961 175.357 23.3091L177.098 19.7079C174.777 18.5854 172.135 18.0568 169.228 18.0568V22.0568ZM175.357 23.3091C177.057 24.1308 178.36 25.2589 179.317 26.6946L182.645 24.4758C181.269 22.4115 179.403 20.8219 177.098 19.7079L175.357 23.3091ZM179.317 26.6946C180.26 28.1089 180.809 29.8057 180.912 31.851L184.907 31.649C184.772 28.9746 184.035 26.5615 182.645 24.4758L179.317 26.6946ZM182.91 29.75H174.915V33.75H182.91V29.75ZM176.894 31.4575C176.614 29.5625 175.845 27.9074 174.51 26.6275L171.741 29.5146C172.342 30.0907 172.766 30.8882 172.937 32.0425L176.894 31.4575ZM174.53 26.647C173.142 25.2784 171.355 24.6591 169.367 24.6591V28.6591C170.482 28.6591 171.2 28.981 171.721 29.4951L174.53 26.647ZM169.367 24.6591C167.667 24.6591 166.099 25.1312 164.748 26.1174L167.106 29.3485C167.716 28.9029 168.442 28.6591 169.367 28.6591V24.6591ZM164.752 26.1145C163.419 27.0822 162.457 28.4447 161.804 30.0694L165.516 31.5613C165.95 30.4814 166.499 29.7891 167.102 29.3514L164.752 26.1145ZM161.804 30.0694C161.14 31.7213 160.844 33.6266 160.844 35.7273H164.844C164.844 33.9833 165.092 32.614 165.516 31.5613L161.804 30.0694ZM160.844 35.7273C160.844 37.8466 161.131 39.7641 161.776 41.4229L165.504 39.9748C165.088 38.9026 164.844 37.5056 164.844 35.7273H160.844ZM161.782 41.4385C162.435 43.0802 163.404 44.4558 164.748 45.4366L167.106 42.2054C166.488 41.7544 165.932 41.0486 165.498 39.9592L161.782 41.4385ZM164.748 45.4366C166.099 46.4228 167.667 46.8949 169.367 46.8949V42.8949C168.442 42.8949 167.716 42.651 167.106 42.2054L164.748 45.4366ZM169.367 46.8949C170.617 46.8949 171.806 46.636 172.891 46.0747L171.053 42.5219C170.601 42.7561 170.053 42.8949 169.367 42.8949V46.8949ZM172.879 46.0811C173.978 45.5221 174.878 44.7086 175.565 43.6776L172.237 41.4588C171.917 41.9391 171.531 42.2791 171.066 42.5155L172.879 46.0811ZM175.561 43.6842C176.27 42.6292 176.699 41.4153 176.894 40.0971L172.937 39.5109C172.814 40.3404 172.566 40.9693 172.242 41.4522L175.561 43.6842ZM174.915 41.804H182.91V37.804H174.915V41.804ZM180.913 39.6905C180.798 41.7177 180.252 43.4321 179.318 44.8885L182.684 47.049C184.029 44.9524 184.757 42.5569 184.907 39.9174L180.913 39.6905ZM179.315 44.8917C178.395 46.3315 177.12 47.473 175.433 48.3163L177.222 51.894C179.513 50.7486 181.352 49.1326 182.686 47.0458L179.315 44.8917ZM175.433 48.3163C173.777 49.1442 171.743 49.5966 169.268 49.5966V53.5966C172.228 53.5966 174.901 53.0546 177.222 51.894L175.433 48.3163ZM194.141 49.6875L193.149 51.4247L193.162 51.4315L194.141 49.6875ZM188.93 44.2386L187.154 45.1569L187.156 45.161L188.93 44.2386ZM188.93 27.5938L187.152 26.6795L188.93 27.5938ZM194.081 22.0455L193.058 20.3269L193.053 20.3296L194.081 22.0455ZM207.544 21.0312L206.843 22.9045L206.852 22.9077L206.861 22.9108L207.544 21.0312ZM212.118 23.9148L210.711 25.3362L210.718 25.3433L212.118 23.9148ZM215.18 28.767L213.307 29.4679L213.309 29.4721L215.18 28.767ZM216.274 37.8949V39.8949H218.274V37.8949H216.274ZM190.482 37.8949H188.482V39.8949H190.482V37.8949ZM190.482 32.6449V30.6449H188.482V32.6449H190.482ZM208.3 32.6449V34.6449H210.3V32.6449H208.3ZM207.504 29.4034L205.762 30.3851V30.3851L207.504 29.4034ZM205.297 27.196L204.286 28.9218L204.301 28.9303L204.315 28.9385L205.297 27.196ZM198.635 27.2756L199.657 28.9947L199.664 28.9906L198.635 27.2756ZM196.328 29.642L198.068 30.6293L198.073 30.6193L196.328 29.642ZM195.473 32.9233L193.473 32.9013L193.473 32.9123V32.9233H195.473ZM196.308 41.8324L194.524 42.7354L194.528 42.7439L194.532 42.7524L196.308 41.8324ZM204.979 44.875L204.337 42.9809L204.979 44.875ZM206.987 43.6818L205.608 42.2335V42.2335L206.987 43.6818ZM208.26 41.733L208.392 39.7373L206.915 39.6398L206.39 41.0236L208.26 41.733ZM216.095 42.25L218.052 42.6634L218.529 40.4062L216.227 40.2543L216.095 42.25ZM213.649 47.1818L212.146 45.8628L212.145 45.8638L213.649 47.1818ZM208.916 50.4432L209.659 52.3001L209.666 52.2975L208.916 50.4432ZM202.254 49.5966C199.384 49.5966 197.031 49.0167 195.12 47.9435L193.162 51.4315C195.784 52.9038 198.841 53.5966 202.254 53.5966V49.5966ZM195.132 47.9504C193.219 46.8588 191.751 45.3285 190.705 43.3162L187.156 45.161C188.549 47.8419 190.555 49.9442 193.149 51.4246L195.132 47.9504ZM190.707 43.3203C189.662 41.2986 189.101 38.8358 189.101 35.8665H185.101C185.101 39.3404 185.759 42.459 187.154 45.1569L190.707 43.3203ZM189.101 35.8665C189.101 32.9861 189.659 30.5521 190.709 28.508L187.152 26.6795C185.763 29.3816 185.101 32.4628 185.101 35.8665H189.101ZM190.709 28.508C191.764 26.4551 193.226 24.8885 195.108 23.7613L193.053 20.3296C190.508 21.8539 188.536 23.9861 187.152 26.6795L190.709 28.508ZM195.104 23.764C196.976 22.6496 199.223 22.0568 201.916 22.0568V18.0568C198.617 18.0568 195.64 18.7898 193.058 20.3269L195.104 23.764ZM201.916 22.0568C203.713 22.0568 205.349 22.3457 206.843 22.9045L208.245 19.158C206.265 18.4176 204.15 18.0568 201.916 18.0568V22.0568ZM206.861 22.9108C208.344 23.4504 209.621 24.2573 210.711 25.3362L213.525 22.4933C212.016 21.0003 210.244 19.8848 208.228 19.1517L206.861 22.9108ZM210.718 25.3433C211.795 26.3988 212.667 27.7569 213.307 29.4679L217.054 28.0662C216.235 25.8794 215.065 24.0027 213.518 22.4862L210.718 25.3433ZM213.309 29.4721C213.934 31.1329 214.274 33.1513 214.274 35.5682H218.274C218.274 32.7881 217.885 30.2724 217.052 28.062L213.309 29.4721ZM214.274 35.5682V37.8949H218.274V35.5682H214.274ZM216.274 35.8949H190.482V39.8949H216.274V35.8949ZM192.482 37.8949V32.6449H188.482V37.8949H192.482ZM190.482 34.6449H208.3V30.6449H190.482V34.6449ZM210.3 32.6449C210.3 31.1264 209.967 29.6997 209.247 28.4217L205.762 30.3851C206.102 30.9897 206.3 31.724 206.3 32.6449H210.3ZM209.247 28.4217C208.537 27.1621 207.538 26.1632 206.279 25.4535L204.315 28.9385C204.938 29.2895 205.411 29.7621 205.762 30.3851L209.247 28.4217ZM206.308 25.4703C205.03 24.7222 203.591 24.3807 202.055 24.3807V28.3807C202.986 28.3807 203.707 28.5828 204.286 28.9218L206.308 25.4703ZM202.055 24.3807C200.448 24.3807 198.944 24.7576 197.606 25.5606L199.664 28.9906C200.314 28.6003 201.091 28.3807 202.055 28.3807V24.3807ZM197.613 25.5565C196.33 26.3191 195.312 27.3635 194.583 28.6648L198.073 30.6193C198.458 29.9319 198.977 29.3987 199.657 28.9946L197.613 25.5565ZM194.589 28.6548C193.853 29.9508 193.49 31.3806 193.473 32.9013L197.473 32.9453C197.483 32.0532 197.689 31.2954 198.067 30.6293L194.589 28.6548ZM193.473 32.9233V37.9148H197.473V32.9233H193.473ZM193.473 37.9148C193.473 39.6702 193.797 41.299 194.524 42.7354L198.093 40.9294C197.706 40.1651 197.473 39.182 197.473 37.9148H193.473ZM194.532 42.7524C195.271 44.1786 196.337 45.3151 197.715 46.1102L199.714 42.6455C199.024 42.2474 198.485 41.6869 198.084 40.9124L194.532 42.7524ZM197.715 46.1102C199.106 46.9125 200.69 47.2727 202.393 47.2727V43.2727C201.259 43.2727 200.391 43.0363 199.714 42.6455L197.715 46.1102ZM202.393 47.2727C203.523 47.2727 204.605 47.1134 205.621 46.7691L204.337 42.9809C203.788 43.1669 203.146 43.2727 202.393 43.2727V47.2727ZM205.621 46.7691C206.657 46.4177 207.584 45.8754 208.367 45.1301L205.608 42.2335C205.277 42.5489 204.864 42.802 204.337 42.9809L205.621 46.7691ZM208.367 45.1301C209.155 44.3791 209.74 43.4713 210.13 42.4423L206.39 41.0236C206.197 41.5325 205.933 41.9239 205.608 42.2335L208.367 45.1301ZM208.128 43.7286L215.963 44.2457L216.227 40.2543L208.392 39.7373L208.128 43.7286ZM214.138 41.8366C213.809 43.3936 213.146 44.7232 212.146 45.8628L215.153 48.5008C216.619 46.8298 217.585 44.8715 218.052 42.6634L214.138 41.8366ZM212.145 45.8638C211.156 46.9919 209.85 47.9088 208.167 48.5889L209.666 52.2975C211.854 51.4132 213.702 50.1559 215.153 48.4998L212.145 45.8638ZM208.173 48.5862C206.532 49.2426 204.572 49.5966 202.254 49.5966V53.5966C204.974 53.5966 207.455 53.1816 209.659 52.3001L208.173 48.5862ZM257.016 21.9858L255.026 22.1832L255.205 23.9858H257.016V21.9858ZM246.496 17.5114L247.235 19.3701L247.246 19.3657L247.257 19.3612L246.496 17.5114ZM244.269 19.1222L242.669 17.9222L242.662 17.9321L242.654 17.9421L244.269 19.1222ZM243.513 21.4688L245.512 21.5414L245.513 21.5051V21.4688H243.513ZM243.971 23.3778L242.263 24.4191L242.272 24.4341L242.282 24.4489L243.971 23.3778ZM245.383 24.7898L244.273 26.4539L244.286 26.4625L244.299 26.4709L245.383 24.7898ZM247.451 25.804L246.752 27.6779L246.766 27.6832L246.78 27.6882L247.451 25.804ZM249.957 26.5199L250.422 24.5747L250.408 24.5714L250.394 24.5682L249.957 26.5199ZM253.616 27.3949L253.151 29.34L253.165 29.3434L253.179 29.3466L253.616 27.3949ZM258.508 28.9858L257.693 30.8121L258.508 28.9858ZM262.366 31.4318L263.696 29.938L262.366 31.4318ZM264.891 34.8523L263.071 35.6799L263.074 35.6875L263.078 35.695L264.891 34.8523ZM265.826 39.3665L267.826 39.3771L267.826 39.364L267.826 39.3509L265.826 39.3665ZM263.917 45.8494L262.27 44.7154L262.268 44.7179L263.917 45.8494ZM258.508 50.0852L259.288 51.9267L259.293 51.9246L258.508 50.0852ZM241.425 50.0653L240.658 51.9124L240.662 51.9139L241.425 50.0653ZM235.738 45.5909L234.084 46.7155L234.088 46.7219L234.093 46.7282L235.738 45.5909ZM233.61 38.2131V36.2131H231.564L231.611 38.2583L233.61 38.2131ZM241.942 38.2131L243.938 38.0775L243.811 36.2131H241.942V38.2131ZM243.116 41.6335L241.519 42.8372L241.528 42.8502L241.538 42.863L243.116 41.6335ZM245.92 43.6818L245.181 45.5402L245.193 45.5453L245.206 45.5501L245.92 43.6818ZM253.715 43.7216L252.988 41.8584L252.98 41.8615L253.715 43.7216ZM256.241 41.9517L257.811 43.191L256.241 41.9517ZM256.32 37.0398L254.797 38.336L254.805 38.3453L254.813 38.3545L256.32 37.0398ZM253.974 35.4489L253.186 37.2872L253.194 37.2908L253.974 35.4489ZM250.215 34.2557L249.728 36.1955L249.737 36.1978L249.746 36.2L250.215 34.2557ZM245.781 33.142L246.268 31.2023L246.26 31.2005L246.253 31.1987L245.781 33.142ZM237.647 29.2244L236.315 30.716L237.647 29.2244ZM234.684 22.0455L236.684 22.0543L236.684 22.0445L236.684 22.0347L234.684 22.0455ZM236.653 15.5824L235.035 14.4067L235.029 14.4144L236.653 15.5824ZM258.031 11.267L257.197 13.0848L257.201 13.0867L258.031 11.267ZM263.32 15.5824L261.669 16.7109V16.7109L263.32 15.5824ZM265.269 21.9858V23.9858H267.302L267.269 21.953L265.269 21.9858ZM259.007 21.7884C258.796 19.6687 257.854 17.8884 256.154 16.6366L253.782 19.8577C254.495 20.3824 254.918 21.0946 255.026 22.1832L259.007 21.7884ZM256.154 16.6366C254.495 15.4151 252.392 14.9148 250.056 14.9148V18.9148C251.856 18.9148 253.028 19.3027 253.782 19.8577L256.154 16.6366ZM250.056 14.9148C248.474 14.9148 247.013 15.137 245.736 15.6615L247.257 19.3612C247.916 19.0903 248.827 18.9148 250.056 18.9148V14.9148ZM245.758 15.6527C244.52 16.1447 243.449 16.8819 242.669 17.9222L245.869 20.3222C246.123 19.9836 246.538 19.647 247.235 19.3701L245.758 15.6527ZM242.654 17.9421C241.894 18.983 241.513 20.1808 241.513 21.4688H245.513C245.513 21.0067 245.637 20.6401 245.884 20.3022L242.654 17.9421ZM241.515 21.3961C241.476 22.4582 241.699 23.4938 242.263 24.4191L245.678 22.3366C245.58 22.1748 245.498 21.9376 245.512 21.5414L241.515 21.3961ZM242.282 24.4489C242.792 25.2541 243.471 25.9189 244.273 26.4539L246.492 23.1257C246.102 22.8652 245.839 22.5887 245.66 22.3068L242.282 24.4489ZM244.299 26.4709C245.036 26.9455 245.858 27.3446 246.752 27.6779L248.15 23.93C247.479 23.6801 246.923 23.403 246.466 23.1086L244.299 26.4709ZM246.78 27.6882C247.646 27.9963 248.56 28.2566 249.52 28.4716L250.394 24.5682C249.577 24.3854 248.82 24.1685 248.122 23.9198L246.78 27.6882ZM249.492 28.465L253.151 29.34L254.081 25.4497L250.422 24.5747L249.492 28.465ZM253.179 29.3466C254.841 29.7186 256.343 30.2095 257.693 30.8121L259.323 27.1595C257.703 26.4363 255.944 25.8666 254.053 25.4432L253.179 29.3466ZM257.693 30.8121C259.012 31.4009 260.119 32.1094 261.036 32.9256L263.696 29.938C262.438 28.8186 260.974 27.8964 259.323 27.1595L257.693 30.8121ZM261.036 32.9256C261.917 33.7098 262.591 34.6237 263.071 35.6799L266.712 34.0247C265.999 32.4558 264.989 31.0894 263.696 29.938L261.036 32.9256ZM263.078 35.695C263.548 36.7074 263.815 37.9221 263.826 39.3821L267.826 39.3509C267.811 37.4169 267.454 35.6222 266.705 34.0095L263.078 35.695ZM263.826 39.3558C263.815 41.4978 263.274 43.256 262.27 44.7154L265.564 46.9835C267.079 44.7838 267.811 42.22 267.826 39.3771L263.826 39.3558ZM262.268 44.7179C261.27 46.1722 259.792 47.3624 257.722 48.2459L259.293 51.9246C261.944 50.7929 264.071 49.1592 265.566 46.981L262.268 44.7179ZM257.728 48.2437C255.69 49.1071 253.14 49.5767 250.016 49.5767V53.5767C253.522 53.5767 256.633 53.052 259.288 51.9267L257.728 48.2437ZM250.016 49.5767C246.928 49.5767 244.335 49.1031 242.189 48.2168L240.662 51.9139C243.395 53.0427 246.529 53.5767 250.016 53.5767V49.5767ZM242.193 48.2183C240.087 47.3437 238.51 46.0835 237.383 44.4536L234.093 46.7282C235.697 49.0491 237.912 50.7719 240.658 51.9124L242.193 48.2183ZM237.392 44.4663C236.3 42.8602 235.669 40.7971 235.61 38.1678L231.611 38.2583C231.684 41.4889 232.472 44.3443 234.084 46.7155L237.392 44.4663ZM233.61 40.2131H241.942V36.2131H233.61V40.2131ZM239.947 38.3487C240.061 40.0248 240.553 41.5566 241.519 42.8372L244.713 40.4298C244.299 39.8809 244.01 39.1324 243.938 38.0775L239.947 38.3487ZM241.538 42.863C242.481 44.0721 243.717 44.9581 245.181 45.5402L246.659 41.8234C245.789 41.4775 245.156 40.998 244.693 40.404L241.538 42.863ZM245.206 45.5501C246.65 46.1018 248.23 46.358 249.917 46.358V42.358C248.634 42.358 247.549 42.1634 246.633 41.8135L245.206 45.5501ZM249.917 46.358C251.563 46.358 253.09 46.1192 254.45 45.5817L252.98 41.8615C252.193 42.1725 251.187 42.358 249.917 42.358V46.358ZM254.442 45.5847C255.791 45.0586 256.951 44.2796 257.811 43.191L254.671 40.7124C254.337 41.1352 253.814 41.5361 252.988 41.8584L254.442 45.5847ZM257.811 43.191C258.691 42.0751 259.136 40.7681 259.136 39.3466H255.136C255.136 39.8872 254.983 40.3169 254.671 40.7124L257.811 43.191ZM259.136 39.3466C259.136 38.0036 258.723 36.752 257.827 35.725L254.813 38.3545C255.004 38.5738 255.136 38.86 255.136 39.3466H259.136ZM257.843 35.7435C257.05 34.8116 255.973 34.1231 254.753 33.6069L253.194 37.2908C254.043 37.6497 254.53 38.0218 254.797 38.336L257.843 35.7435ZM254.762 33.6106C253.607 33.1159 252.241 32.6866 250.684 32.3114L249.746 36.2C251.16 36.5406 252.298 36.9068 253.186 37.2872L254.762 33.6106ZM250.702 32.3159L246.268 31.2023L245.293 35.0818L249.728 36.1955L250.702 32.3159ZM246.253 31.1987C243.039 30.4168 240.656 29.2309 238.979 27.7329L236.315 30.716C238.615 32.771 241.655 34.1968 245.308 35.0854L246.253 31.1987ZM238.979 27.7329C237.475 26.3893 236.673 24.573 236.684 22.0543L232.684 22.0366C232.669 25.5368 233.841 28.5066 236.315 30.716L238.979 27.7329ZM236.684 22.0347C236.673 19.9531 237.219 18.22 238.276 16.7504L235.029 14.4144C233.435 16.6304 232.669 19.206 232.684 22.0562L236.684 22.0347ZM238.271 16.758C239.379 15.2333 240.921 14.0045 242.972 13.0955L241.351 9.43857C238.735 10.5978 236.605 12.2459 235.035 14.4067L238.271 16.758ZM242.972 13.0955C245.011 12.1915 247.38 11.7159 250.116 11.7159V7.71591C246.912 7.71591 243.978 8.27438 241.351 9.43857L242.972 13.0955ZM250.116 11.7159C252.912 11.7159 255.255 12.1941 257.197 13.0848L258.865 9.44925C256.298 8.27178 253.365 7.71591 250.116 7.71591V11.7159ZM257.201 13.0867C259.176 13.9876 260.639 15.203 261.669 16.7109L264.971 14.4539C263.483 12.2761 261.42 10.6147 258.861 9.44741L257.201 13.0867ZM261.669 16.7109C262.688 18.2023 263.236 19.9483 263.269 22.0186L267.269 21.953C267.223 19.171 266.471 16.6481 264.971 14.4539L261.669 16.7109ZM265.269 19.9858H257.016V23.9858H265.269V19.9858ZM279.93 33.3409L277.931 33.3207L277.93 33.3308V33.3409H279.93ZM279.93 51V53H281.93V51H279.93ZM271.459 51H269.459V53H271.459V51ZM271.459 10.2727V8.27273H269.459V10.2727H271.459ZM279.692 10.2727H281.692V8.27273H279.692V10.2727ZM279.692 25.8438H277.692V27.8438H279.692V25.8438ZM280.05 25.8438V27.8438H281.426L281.918 26.558L280.05 25.8438ZM283.391 21.608L284.497 23.2743L284.507 23.2676L283.391 21.608ZM294.726 21.4489L293.712 23.1727L293.72 23.1777L293.729 23.1827L294.726 21.4489ZM298.425 25.4062L296.641 26.3116L296.646 26.3199L296.65 26.3281L298.425 25.4062ZM299.737 31.5511L297.737 31.54V31.5511H299.737ZM299.737 51V53H301.737V51H299.737ZM291.266 51H289.266V53H291.266V51ZM291.266 33.0625L289.266 33.0484V33.0625H291.266ZM289.834 28.6676L288.356 30.0149L288.365 30.0249L289.834 28.6676ZM282.754 27.8324L281.787 26.0816L281.776 26.0878L282.754 27.8324ZM280.686 29.9801L278.923 29.0363L278.918 29.0455L280.686 29.9801ZM277.93 33.3409V51H281.93V33.3409H277.93ZM279.93 49H271.459V53H279.93V49ZM273.459 51V10.2727H269.459V51H273.459ZM271.459 12.2727H279.692V8.27273H271.459V12.2727ZM277.692 10.2727V25.8438H281.692V10.2727H277.692ZM279.692 27.8438H280.05V23.8438H279.692V27.8438ZM281.918 26.558C282.466 25.125 283.322 24.0538 284.497 23.2743L282.285 19.9416C280.383 21.2037 279.012 22.9565 278.182 25.1295L281.918 26.558ZM284.507 23.2676C285.64 22.5055 287.155 22.0568 289.178 22.0568V18.0568C286.56 18.0568 284.217 18.6423 282.275 19.9483L284.507 23.2676ZM289.178 22.0568C291 22.0568 292.487 22.4525 293.712 23.1727L295.74 19.725C293.809 18.5891 291.598 18.0568 289.178 18.0568V22.0568ZM293.729 23.1827C294.964 23.893 295.933 24.9154 296.641 26.3116L300.208 24.5009C299.167 22.4501 297.669 20.8342 295.723 19.715L293.729 23.1827ZM296.65 26.3281C297.357 27.6895 297.749 29.4022 297.737 31.54L301.737 31.5622C301.752 28.9273 301.269 26.5435 300.2 24.4844L296.65 26.3281ZM297.737 31.5511V51H301.737V31.5511H297.737ZM299.737 49H291.266V53H299.737V49ZM293.266 51V33.0625H289.266V51H293.266ZM293.266 33.0766C293.281 30.853 292.714 28.8376 291.303 27.3103L288.365 30.0249C288.889 30.5924 289.277 31.5069 289.266 33.0484L293.266 33.0766ZM291.312 27.3204C289.898 25.769 287.971 25.0966 285.817 25.0966V29.0966C287.109 29.0966 287.86 29.4715 288.356 30.0148L291.312 27.3204ZM285.817 25.0966C284.372 25.0966 283.01 25.4064 281.787 26.0816L283.721 29.5832C284.275 29.2774 284.955 29.0966 285.817 29.0966V25.0966ZM281.776 26.0878C280.547 26.7771 279.594 27.7813 278.923 29.0364L282.449 30.9239C282.785 30.2963 283.212 29.8687 283.732 29.5769L281.776 26.0878ZM278.918 29.0455C278.246 30.3173 277.946 31.7675 277.931 33.3207L281.93 33.3611C281.941 32.2893 282.145 31.4989 282.454 30.9147L278.918 29.0455ZM312.211 49.6875L311.22 51.4247L311.232 51.4315L312.211 49.6875ZM307.001 44.2386L305.224 45.1569L305.226 45.161L307.001 44.2386ZM307.001 27.5938L305.222 26.6795L307.001 27.5938ZM312.151 22.0455L311.128 20.3269L311.124 20.3296L312.151 22.0455ZM325.614 21.0312L324.914 22.9045L324.922 22.9077L324.931 22.9108L325.614 21.0312ZM330.188 23.9148L328.781 25.3362L328.789 25.3433L330.188 23.9148ZM333.251 28.767L331.378 29.4679L331.379 29.4721L333.251 28.767ZM334.344 37.8949V39.8949H336.344V37.8949H334.344ZM308.552 37.8949H306.552V39.8949H308.552V37.8949ZM308.552 32.6449V30.6449H306.552V32.6449H308.552ZM326.37 32.6449V34.6449H328.37V32.6449H326.37ZM325.575 29.4034L323.832 30.3851V30.3851L325.575 29.4034ZM323.367 27.196L322.356 28.9218L322.371 28.9303L322.385 28.9385L323.367 27.196ZM316.705 27.2756L317.727 28.9947L317.734 28.9906L316.705 27.2756ZM314.398 29.642L316.138 30.6293L316.143 30.6193L314.398 29.642ZM313.543 32.9233L311.543 32.9013L311.543 32.9123V32.9233H313.543ZM314.379 41.8324L312.594 42.7354L312.598 42.7439L312.603 42.7524L314.379 41.8324ZM323.049 44.875L322.407 42.9809L323.049 44.875ZM325.058 43.6818L323.678 42.2335V42.2335L325.058 43.6818ZM326.33 41.733L326.462 39.7373L324.985 39.6398L324.46 41.0236L326.33 41.733ZM334.165 42.25L336.122 42.6634L336.599 40.4062L334.297 40.2543L334.165 42.25ZM331.719 47.1818L330.216 45.8628L330.215 45.8638L331.719 47.1818ZM326.987 50.4432L327.729 52.3001L327.736 52.2975L326.987 50.4432ZM320.325 49.5966C317.454 49.5966 315.102 49.0167 313.19 47.9435L311.232 51.4315C313.854 52.9038 316.911 53.5966 320.325 53.5966V49.5966ZM313.202 47.9504C311.289 46.8588 309.821 45.3285 308.775 43.3162L305.226 45.161C306.62 47.8419 308.625 49.9442 311.22 51.4246L313.202 47.9504ZM308.777 43.3203C307.732 41.2986 307.171 38.8358 307.171 35.8665H303.171C303.171 39.3404 303.83 42.459 305.224 45.1569L308.777 43.3203ZM307.171 35.8665C307.171 32.9861 307.729 30.5521 308.78 28.508L305.222 26.6795C303.833 29.3816 303.171 32.4628 303.171 35.8665H307.171ZM308.78 28.508C309.835 26.4551 311.296 24.8885 313.179 23.7613L311.124 20.3296C308.578 21.8539 306.606 23.9861 305.222 26.6795L308.78 28.508ZM313.174 23.764C315.047 22.6496 317.293 22.0568 319.987 22.0568V18.0568C316.687 18.0568 313.711 18.7898 311.128 20.3269L313.174 23.764ZM319.987 22.0568C321.783 22.0568 323.42 22.3457 324.914 22.9045L326.315 19.158C324.335 18.4176 322.22 18.0568 319.987 18.0568V22.0568ZM324.931 22.9108C326.415 23.4504 327.691 24.2573 328.781 25.3362L331.595 22.4933C330.087 21.0003 328.314 19.8848 326.298 19.1517L324.931 22.9108ZM328.789 25.3433C329.866 26.3988 330.737 27.7569 331.378 29.4679L335.124 28.0662C334.306 25.8794 333.136 24.0027 331.588 22.4862L328.789 25.3433ZM331.379 29.4721C332.005 31.1329 332.344 33.1513 332.344 35.5682H336.344C336.344 32.7881 335.955 30.2724 335.122 28.062L331.379 29.4721ZM332.344 35.5682V37.8949H336.344V35.5682H332.344ZM334.344 35.8949H308.552V39.8949H334.344V35.8949ZM310.552 37.8949V32.6449H306.552V37.8949H310.552ZM308.552 34.6449H326.37V30.6449H308.552V34.6449ZM328.37 32.6449C328.37 31.1264 328.037 29.6997 327.317 28.4217L323.832 30.3851C324.173 30.9897 324.37 31.724 324.37 32.6449H328.37ZM327.317 28.4217C326.607 27.1621 325.608 26.1632 324.349 25.4535L322.385 28.9385C323.008 29.2895 323.481 29.7621 323.832 30.3851L327.317 28.4217ZM324.378 25.4703C323.101 24.7222 321.661 24.3807 320.126 24.3807V28.3807C321.056 28.3807 321.778 28.5828 322.356 28.9218L324.378 25.4703ZM320.126 24.3807C318.518 24.3807 317.014 24.7576 315.676 25.5606L317.734 28.9906C318.385 28.6003 319.162 28.3807 320.126 28.3807V24.3807ZM315.683 25.5565C314.401 26.3191 313.382 27.3635 312.653 28.6648L316.143 30.6193C316.528 29.9319 317.048 29.3987 317.727 28.9946L315.683 25.5565ZM312.659 28.6548C311.923 29.9508 311.56 31.3806 311.543 32.9013L315.543 32.9453C315.553 32.0532 315.76 31.2954 316.138 30.6293L312.659 28.6548ZM311.543 32.9233V37.9148H315.543V32.9233H311.543ZM311.543 37.9148C311.543 39.6702 311.867 41.299 312.594 42.7354L316.163 40.9294C315.776 40.1651 315.543 39.182 315.543 37.9148H311.543ZM312.603 42.7524C313.342 44.1786 314.407 45.3151 315.785 46.1102L317.784 42.6455C317.094 42.2474 316.556 41.6869 316.154 40.9124L312.603 42.7524ZM315.785 46.1102C317.176 46.9125 318.761 47.2727 320.464 47.2727V43.2727C319.33 43.2727 318.462 43.0363 317.784 42.6455L315.785 46.1102ZM320.464 47.2727C321.593 47.2727 322.675 47.1134 323.691 46.7691L322.407 42.9809C321.858 43.1669 321.217 43.2727 320.464 43.2727V47.2727ZM323.691 46.7691C324.728 46.4177 325.654 45.8754 326.437 45.1301L323.678 42.2335C323.347 42.5489 322.935 42.802 322.407 42.9809L323.691 46.7691ZM326.437 45.1301C327.225 44.3791 327.81 43.4713 328.2 42.4423L324.46 41.0236C324.267 41.5325 324.003 41.9239 323.678 42.2335L326.437 45.1301ZM326.199 43.7286L334.034 44.2457L334.297 40.2543L326.462 39.7373L326.199 43.7286ZM332.209 41.8366C331.88 43.3936 331.216 44.7232 330.216 45.8628L333.223 48.5008C334.689 46.8298 335.656 44.8715 336.122 42.6634L332.209 41.8366ZM330.215 45.8638C329.227 46.9919 327.92 47.9088 326.237 48.5889L327.736 52.2975C329.924 51.4132 331.773 50.1559 333.224 48.4998L330.215 45.8638ZM326.244 48.5862C324.603 49.2426 322.643 49.5966 320.325 49.5966V53.5966C323.044 53.5966 325.526 53.1816 327.729 52.3001L326.244 48.5862ZM345.68 49.6875L344.688 51.4247L344.701 51.4315L345.68 49.6875ZM340.469 44.2386L338.693 45.1569L338.695 45.161L340.469 44.2386ZM340.469 27.5938L338.691 26.6795L340.469 27.5938ZM345.62 22.0455L344.597 20.3269L344.593 20.3296L345.62 22.0455ZM359.083 21.0312L358.382 22.9045L358.391 22.9077L358.4 22.9108L359.083 21.0312ZM363.657 23.9148L362.25 25.3362L362.257 25.3433L363.657 23.9148ZM366.719 28.767L364.846 29.4679L364.848 29.4721L366.719 28.767ZM367.813 37.8949V39.8949H369.813V37.8949H367.813ZM342.021 37.8949H340.021V39.8949H342.021V37.8949ZM342.021 32.6449V30.6449H340.021V32.6449H342.021ZM359.839 32.6449V34.6449H361.839V32.6449H359.839ZM359.043 29.4034L357.301 30.3851V30.3851L359.043 29.4034ZM356.836 27.196L355.825 28.9218L355.84 28.9303L355.854 28.9385L356.836 27.196ZM350.174 27.2756L351.196 28.9947L351.203 28.9906L350.174 27.2756ZM347.867 29.642L349.607 30.6293L349.612 30.6193L347.867 29.642ZM347.012 32.9233L345.012 32.9013L345.012 32.9123V32.9233H347.012ZM347.847 41.8324L346.063 42.7354L346.067 42.7439L346.071 42.7524L347.847 41.8324ZM356.518 44.875L355.876 42.9809L356.518 44.875ZM358.526 43.6818L357.147 42.2335V42.2335L358.526 43.6818ZM359.799 41.733L359.931 39.7373L358.454 39.6398L357.929 41.0236L359.799 41.733ZM367.634 42.25L369.591 42.6634L370.068 40.4062L367.766 40.2543L367.634 42.25ZM365.188 47.1818L363.685 45.8628L363.684 45.8638L365.188 47.1818ZM360.455 50.4432L361.198 52.3001L361.205 52.2975L360.455 50.4432ZM353.793 49.5966C350.923 49.5966 348.57 49.0167 346.659 47.9435L344.701 51.4315C347.323 52.9038 350.38 53.5966 353.793 53.5966V49.5966ZM346.671 47.9504C344.758 46.8588 343.29 45.3285 342.244 43.3162L338.695 45.161C340.088 47.8419 342.094 49.9442 344.689 51.4246L346.671 47.9504ZM342.246 43.3203C341.201 41.2986 340.64 38.8358 340.64 35.8665H336.64C336.64 39.3404 337.298 42.459 338.693 45.1569L342.246 43.3203ZM340.64 35.8665C340.64 32.9861 341.198 30.5521 342.248 28.508L338.691 26.6795C337.302 29.3816 336.64 32.4628 336.64 35.8665H340.64ZM342.248 28.508C343.303 26.4551 344.765 24.8885 346.648 23.7613L344.593 20.3296C342.047 21.8539 340.075 23.9861 338.691 26.6795L342.248 28.508ZM346.643 23.764C348.515 22.6496 350.762 22.0568 353.455 22.0568V18.0568C350.156 18.0568 347.179 18.7898 344.597 20.3269L346.643 23.764ZM353.455 22.0568C355.252 22.0568 356.888 22.3457 358.382 22.9045L359.784 19.158C357.804 18.4176 355.689 18.0568 353.455 18.0568V22.0568ZM358.4 22.9108C359.883 23.4504 361.16 24.2573 362.25 25.3362L365.064 22.4933C363.556 21.0003 361.783 19.8848 359.767 19.1517L358.4 22.9108ZM362.257 25.3433C363.334 26.3988 364.206 27.7569 364.846 29.4679L368.593 28.0662C367.774 25.8794 366.604 24.0027 365.057 22.4862L362.257 25.3433ZM364.848 29.4721C365.473 31.1329 365.813 33.1513 365.813 35.5682H369.813C369.813 32.7881 369.424 30.2724 368.591 28.062L364.848 29.4721ZM365.813 35.5682V37.8949H369.813V35.5682H365.813ZM367.813 35.8949H342.021V39.8949H367.813V35.8949ZM344.021 37.8949V32.6449H340.021V37.8949H344.021ZM342.021 34.6449H359.839V30.6449H342.021V34.6449ZM361.839 32.6449C361.839 31.1264 361.506 29.6997 360.786 28.4217L357.301 30.3851C357.641 30.9897 357.839 31.724 357.839 32.6449H361.839ZM360.786 28.4217C360.076 27.1621 359.077 26.1632 357.818 25.4535L355.854 28.9385C356.477 29.2895 356.95 29.7621 357.301 30.3851L360.786 28.4217ZM357.847 25.4703C356.57 24.7222 355.13 24.3807 353.594 24.3807V28.3807C354.525 28.3807 355.246 28.5828 355.825 28.9218L357.847 25.4703ZM353.594 24.3807C351.987 24.3807 350.483 24.7576 349.145 25.5606L351.203 28.9906C351.853 28.6003 352.63 28.3807 353.594 28.3807V24.3807ZM349.152 25.5565C347.869 26.3191 346.851 27.3635 346.122 28.6648L349.612 30.6193C349.997 29.9319 350.517 29.3987 351.196 28.9946L349.152 25.5565ZM346.128 28.6548C345.392 29.9508 345.029 31.3806 345.012 32.9013L349.012 32.9453C349.022 32.0532 349.228 31.2954 349.607 30.6293L346.128 28.6548ZM345.012 32.9233V37.9148H349.012V32.9233H345.012ZM345.012 37.9148C345.012 39.6702 345.336 41.299 346.063 42.7354L349.632 40.9294C349.245 40.1651 349.012 39.182 349.012 37.9148H345.012ZM346.071 42.7524C346.81 44.1786 347.876 45.3151 349.254 46.1102L351.253 42.6455C350.563 42.2474 350.024 41.6869 349.623 40.9124L346.071 42.7524ZM349.254 46.1102C350.645 46.9125 352.229 47.2727 353.933 47.2727V43.2727C352.799 43.2727 351.93 43.0363 351.253 42.6455L349.254 46.1102ZM353.933 47.2727C355.062 47.2727 356.144 47.1134 357.16 46.7691L355.876 42.9809C355.327 43.1669 354.685 43.2727 353.933 43.2727V47.2727ZM357.16 46.7691C358.197 46.4177 359.123 45.8754 359.906 45.1301L357.147 42.2335C356.816 42.5489 356.403 42.802 355.876 42.9809L357.16 46.7691ZM359.906 45.1301C360.694 44.3791 361.279 43.4713 361.669 42.4423L357.929 41.0236C357.736 41.5325 357.472 41.9239 357.147 42.2335L359.906 45.1301ZM359.667 43.7286L367.503 44.2457L367.766 40.2543L359.931 39.7373L359.667 43.7286ZM365.677 41.8366C365.348 43.3936 364.685 44.7232 363.685 45.8628L366.692 48.5008C368.158 46.8298 369.125 44.8715 369.591 42.6634L365.677 41.8366ZM363.684 45.8638C362.696 46.9919 361.389 47.9088 359.706 48.5889L361.205 52.2975C363.393 51.4132 365.241 50.1559 366.692 48.4998L363.684 45.8638ZM359.712 48.5862C358.072 49.2426 356.111 49.5966 353.793 49.5966V53.5966C356.513 53.5966 358.994 53.1816 361.198 52.3001L359.712 48.5862ZM389.589 20.4545H391.589V18.4545H389.589V20.4545ZM389.589 26.8182V28.8182H391.589V26.8182H389.589ZM371.194 26.8182H369.194V28.8182H371.194V26.8182ZM371.194 20.4545V18.4545H369.194V20.4545H371.194ZM375.37 13.1364V11.1364H373.37V13.1364H375.37ZM383.842 13.1364H385.842V11.1364H383.842V13.1364ZM384.2 43.4432L382.444 44.4009L382.45 44.4123L382.456 44.4237L384.2 43.4432ZM385.194 44.3381L384.441 46.191L384.451 46.195L384.461 46.1989L385.194 44.3381ZM387.898 44.4972L388.227 46.4699L388.259 46.4646L388.291 46.4583L387.898 44.4972ZM388.813 44.3182L390.77 43.9046L390.366 41.9922L388.445 42.3524L388.813 44.3182ZM390.146 50.6222L390.742 52.5311L392.479 51.9885L392.102 50.2086L390.146 50.6222ZM388.356 51.0795L387.918 49.128L387.902 49.1315L387.887 49.1354L388.356 51.0795ZM385.552 51.4176L385.48 49.4189L385.474 49.4191L385.552 51.4176ZM380.183 50.6023L379.426 52.4536L379.431 52.4559L380.183 50.6023ZM376.623 47.6989L378.302 46.6131L376.623 47.6989ZM375.37 42.7273L377.37 42.7405V42.7273H375.37ZM387.589 20.4545V26.8182H391.589V20.4545H387.589ZM389.589 24.8182H371.194V28.8182H389.589V24.8182ZM373.194 26.8182V20.4545H369.194V26.8182H373.194ZM371.194 22.4545H389.589V18.4545H371.194V22.4545ZM375.37 15.1364H383.842V11.1364H375.37V15.1364ZM381.842 13.1364V41.6136H385.842V13.1364H381.842ZM381.842 41.6136C381.842 42.558 381.979 43.5484 382.444 44.4009L385.955 42.4855C385.956 42.4859 385.948 42.4711 385.935 42.4359C385.923 42.4006 385.908 42.3477 385.894 42.2736C385.864 42.1227 385.842 41.9073 385.842 41.6136H381.842ZM382.456 44.4237C382.902 45.2158 383.57 45.8371 384.441 46.191L385.947 42.4851C385.943 42.4838 385.945 42.4843 385.95 42.4875C385.956 42.4908 385.961 42.4948 385.965 42.4985C385.969 42.5022 385.969 42.5031 385.966 42.4989C385.963 42.4946 385.954 42.4834 385.943 42.4627L382.456 44.4237ZM384.461 46.1989C385.176 46.4805 385.936 46.5966 386.705 46.5966V42.5966C386.334 42.5966 386.087 42.5404 385.927 42.4773L384.461 46.1989ZM386.705 46.5966C387.215 46.5966 387.722 46.5541 388.227 46.4699L387.57 42.5244C387.279 42.5728 386.991 42.5966 386.705 42.5966V46.5966ZM388.291 46.4583C388.686 46.3792 388.982 46.3215 389.182 46.2839L388.445 42.3524C388.221 42.3945 387.906 42.456 387.506 42.536L388.291 46.4583ZM386.856 44.7318L388.189 51.0357L392.102 50.2086L390.77 43.9046L386.856 44.7318ZM389.549 48.7132C389.202 48.8215 388.668 48.96 387.918 49.128L388.793 53.0311C389.582 52.8544 390.24 52.688 390.742 52.5311L389.549 48.7132ZM387.887 49.1354C387.287 49.28 386.494 49.3823 385.48 49.4189L385.624 53.4163C386.81 53.3734 387.887 53.2503 388.825 53.0237L387.887 49.1354ZM385.474 49.4191C383.652 49.4901 382.155 49.2436 380.934 48.7486L379.431 52.4559C381.286 53.2072 383.369 53.5042 385.63 53.4161L385.474 49.4191ZM380.939 48.7509C379.772 48.2738 378.917 47.5629 378.302 46.6131L374.943 48.7847C376.026 50.4598 377.544 51.6846 379.426 52.4536L380.939 48.7509ZM378.302 46.6131C377.718 45.7085 377.359 44.4613 377.37 42.7405L373.37 42.714C373.355 44.997 373.831 47.0642 374.943 48.7847L378.302 46.6131ZM377.37 42.7273V13.1364H373.37V42.7273H377.37ZM420.139 29.1648L420.262 31.161L422.403 31.0293L422.122 28.9029L420.139 29.1648ZM412.384 29.642L410.422 30.0343L410.765 31.7455L412.506 31.6383L412.384 29.642ZM411.528 27.8523L409.97 29.1063L409.978 29.1157L409.986 29.125L411.528 27.8523ZM409.798 26.5597L408.945 28.3685L408.965 28.3781L408.986 28.3873L409.798 26.5597ZM403.952 26.8977L404.984 28.6105L404.994 28.605L405.003 28.5993L403.952 26.8977ZM403.474 30.9347L402.167 32.4483V32.4483L403.474 30.9347ZM406.477 32.1477L406.057 34.1031L406.07 34.1058L406.082 34.1083L406.477 32.1477ZM412.006 33.2614L412.408 31.3022L412.401 31.3007L412.006 33.2614ZM418.648 36.2045L417.288 37.6711L418.648 36.2045ZM419.065 46.804L417.489 45.5732L417.482 45.5819L419.065 46.804ZM414.253 50.3438L415.014 52.1931L415.02 52.1906L414.253 50.3438ZM397.568 49.071L396.409 50.701L396.419 50.7082L397.568 49.071ZM393.372 42.1506L393.267 40.1533L391.087 40.2678L391.392 42.4296L393.372 42.1506ZM401.705 41.7131L403.664 41.3127L403.319 39.6255L401.6 39.7158L401.705 41.7131ZM403.534 44.5369L402.419 46.1975L402.427 46.2028L402.435 46.208L403.534 44.5369ZM410.832 44.6364L411.901 46.3268L411.908 46.3227L410.832 44.6364ZM412.224 42.3892L414.224 42.4182L414.225 42.3865L414.224 42.3547L412.224 42.3892ZM411.25 40.5L410.009 42.0681L410.019 42.0761L410.029 42.084L411.25 40.5ZM408.307 39.3466L408.699 37.3854L408.698 37.3851L408.307 39.3466ZM403.017 38.2926L402.625 40.2538L402.626 40.2541L403.017 38.2926ZM396.355 35.1903L394.928 36.5917L394.935 36.5981L396.355 35.1903ZM395.778 24.4915L394.184 23.2843L394.177 23.2939L395.778 24.4915ZM400.293 21.2102L399.559 19.3498L399.554 19.3515L400.293 21.2102ZM416.241 22.5028L415.055 24.1132L415.06 24.1166L416.241 22.5028ZM420.016 27.1685L412.261 27.6458L412.506 31.6383L420.262 31.161L420.016 27.1685ZM414.345 29.2498C414.146 28.2577 413.715 27.3598 413.071 26.5795L409.986 29.125C410.217 29.4053 410.356 29.7006 410.422 30.0343L414.345 29.2498ZM413.086 26.5983C412.426 25.7779 411.581 25.1634 410.611 24.732L408.986 28.3873C409.447 28.5923 409.756 28.8396 409.97 29.1063L413.086 26.5983ZM410.652 24.7508C409.621 24.2649 408.474 24.0625 407.273 24.0625V28.0625C408.034 28.0625 408.57 28.1915 408.945 28.3685L410.652 24.7508ZM407.273 24.0625C405.677 24.0625 404.186 24.4025 402.901 25.1961L405.003 28.5993C405.521 28.2793 406.243 28.0625 407.273 28.0625V24.0625ZM402.919 25.185C401.525 26.0257 400.599 27.3526 400.599 29.0852H404.599C404.599 28.9733 404.622 28.9311 404.639 28.9039C404.663 28.8645 404.745 28.755 404.984 28.6105L402.919 25.185ZM400.599 29.0852C400.599 30.4323 401.173 31.5893 402.167 32.4483L404.782 29.421C404.61 29.2725 404.599 29.1964 404.599 29.0852H400.599ZM402.167 32.4483C403.142 33.2903 404.552 33.7797 406.057 34.1031L406.898 30.1924C405.565 29.9059 404.973 29.5866 404.782 29.421L402.167 32.4483ZM406.082 34.1083L411.611 35.222L412.401 31.3007L406.872 30.1871L406.082 34.1083ZM411.603 35.2205C414.388 35.7924 416.203 36.6653 417.288 37.6711L420.008 34.738C418.176 33.0393 415.562 31.95 412.408 31.3022L411.603 35.2205ZM417.288 37.6711C418.292 38.6023 418.835 39.8241 418.835 41.5341H422.835C422.835 38.8426 421.92 36.5113 420.008 34.738L417.288 37.6711ZM418.835 41.5341C418.835 43.1111 418.382 44.4297 417.489 45.5732L420.642 48.0347C422.109 46.1555 422.835 43.9608 422.835 41.5341H418.835ZM417.482 45.5819C416.56 46.7766 415.257 47.7607 413.485 48.4969L415.02 52.1906C417.332 51.2298 419.237 49.8541 420.649 48.0261L417.482 45.5819ZM413.491 48.4944C411.749 49.2117 409.676 49.5966 407.233 49.5966V53.5966C410.092 53.5966 412.7 53.1462 415.014 52.1931L413.491 48.4944ZM407.233 49.5966C403.449 49.5966 400.674 48.8071 398.717 47.4338L396.419 50.7082C399.262 52.7024 402.93 53.5966 407.233 53.5966V49.5966ZM398.727 47.4411C396.792 46.0646 395.687 44.2478 395.353 41.8715L391.392 42.4296C391.879 45.8866 393.572 48.6835 396.409 50.7009L398.727 47.4411ZM393.477 44.1478L401.809 43.7103L401.6 39.7158L393.267 40.1533L393.477 44.1478ZM399.745 42.1134C400.093 43.8159 400.979 45.2304 402.419 46.1975L404.649 42.8763C404.154 42.5443 403.82 42.0761 403.664 41.3127L399.745 42.1134ZM402.435 46.208C403.815 47.1155 405.468 47.4915 407.253 47.4915V43.4915C406.015 43.4915 405.188 43.2311 404.633 42.8658L402.435 46.208ZM407.253 47.4915C408.974 47.4915 410.578 47.1637 411.901 46.3268L409.763 42.946C409.284 43.2492 408.502 43.4915 407.253 43.4915V47.4915ZM411.908 46.3227C413.268 45.4553 414.199 44.1385 414.224 42.4182L410.225 42.3602C410.223 42.4694 410.226 42.6507 409.757 42.95L411.908 46.3227ZM414.224 42.3547C414.2 40.9469 413.564 39.7585 412.471 38.916L410.029 42.084C410.146 42.1744 410.182 42.2355 410.193 42.257C410.203 42.276 410.223 42.3198 410.225 42.4237L414.224 42.3547ZM412.491 38.9319C411.494 38.1424 410.154 37.6763 408.699 37.3854L407.915 41.3078C409.112 41.5472 409.733 41.85 410.009 42.0681L412.491 38.9319ZM408.698 37.3851L403.408 36.3312L402.626 40.2541L407.916 41.308L408.698 37.3851ZM403.409 36.3315C400.643 35.7783 398.851 34.8678 397.776 33.7825L394.935 36.5981C396.776 38.456 399.425 39.6138 402.625 40.2538L403.409 36.3315ZM397.782 33.789C396.745 32.7325 396.188 31.3792 396.188 29.5625H392.188C392.188 32.3064 393.075 34.705 394.928 36.5916L397.782 33.789ZM396.188 29.5625C396.188 27.9831 396.606 26.7246 397.38 25.6891L394.177 23.2939C392.83 25.0955 392.188 27.2177 392.188 29.5625H396.188ZM397.373 25.6986C398.191 24.6179 399.376 23.7263 401.031 23.0689L399.554 19.3515C397.338 20.232 395.513 21.5279 394.184 23.2843L397.373 25.6986ZM401.027 23.0707C402.692 22.4136 404.713 22.0568 407.134 22.0568V18.0568C404.33 18.0568 401.791 18.469 399.559 19.3498L401.027 23.0707ZM407.134 22.0568C410.732 22.0568 413.299 22.8195 415.055 24.1132L417.428 20.8925C414.756 18.9248 411.251 18.0568 407.134 18.0568V22.0568ZM415.06 24.1166C416.834 25.4151 417.854 27.1406 418.156 29.4266L422.122 28.9029C421.681 25.5677 420.104 22.8519 417.423 20.8891L415.06 24.1166Z" fill="url(#paint0_linear_1248_185320)"/>
<path d="M6.51296 53.1915V12.4643H22.8198C25.816 12.4643 28.315 12.9084 30.3169 13.7966C32.3188 14.6849 33.8236 15.9179 34.8311 17.4955C35.8387 19.0599 36.3425 20.8629 36.3425 22.9046C36.3425 24.4955 36.0243 25.8942 35.388 27.1006C34.7516 28.2938 33.8766 29.2749 32.763 30.0438C31.6626 30.7995 30.4031 31.3364 28.9846 31.6546V32.0523C30.5357 32.1186 31.9874 32.5561 33.3397 33.3648C34.7052 34.1735 35.8122 35.3071 36.6607 36.7654C37.5092 38.2105 37.9334 39.934 37.9334 41.9358C37.9334 44.0968 37.3965 46.0258 36.3226 47.7228C35.262 49.4065 33.691 50.7389 31.6096 51.7199C29.5281 52.701 26.9628 53.1915 23.9135 53.1915H6.51296ZM15.1238 46.1518H22.1436C24.5433 46.1518 26.2933 45.6944 27.3936 44.7796C28.494 43.8516 29.0442 42.6186 29.0442 41.0807C29.0442 39.9538 28.7724 38.9595 28.2289 38.0978C27.6853 37.236 26.9097 36.5599 25.9022 36.0694C24.9078 35.5788 23.7213 35.3336 22.3425 35.3336H15.1238V46.1518ZM15.1238 29.5069H21.5073C22.6872 29.5069 23.7346 29.3014 24.6493 28.8904C25.5774 28.4661 26.3065 27.8696 26.8368 27.1006C27.3804 26.3317 27.6522 25.4103 27.6522 24.3364C27.6522 22.8648 27.1285 21.6783 26.0811 20.7768C25.0471 19.8752 23.5755 19.4245 21.6664 19.4245H15.1238V29.5069ZM52.0875 53.7682C50.1387 53.7682 48.4019 53.4302 46.8773 52.754C45.3527 52.0646 44.1462 51.0504 43.258 49.7114C42.383 48.3591 41.9455 46.6754 41.9455 44.6603C41.9455 42.9633 42.257 41.5381 42.8802 40.3847C43.5033 39.2313 44.3517 38.3033 45.4256 37.6006C46.4995 36.898 47.7192 36.3677 49.0847 36.0097C50.4635 35.6518 51.9086 35.3999 53.4199 35.254C55.1964 35.0684 56.6283 34.8961 57.7154 34.737C58.8025 34.5646 59.5913 34.3127 60.0819 33.9813C60.5724 33.6499 60.8177 33.1593 60.8177 32.5097V32.3904C60.8177 31.1309 60.4199 30.1565 59.6245 29.4671C58.8423 28.7777 57.7286 28.433 56.2836 28.433C54.7589 28.433 53.5459 28.7711 52.6444 29.4472C51.7428 30.1101 51.1462 30.9453 50.8546 31.9529L43.0194 31.3165C43.4171 29.4605 44.1993 27.8563 45.3659 26.504C46.5326 25.1385 48.0373 24.0911 49.8802 23.362C51.7362 22.6196 53.8839 22.2483 56.3233 22.2483C58.0203 22.2483 59.6444 22.4472 61.1955 22.8449C62.7599 23.2427 64.1453 23.8591 65.3517 24.6944C66.5714 25.5296 67.5326 26.6035 68.2353 27.916C68.9379 29.2152 69.2892 30.773 69.2892 32.5893V53.1915H61.2552V48.9557H61.0165C60.526 49.9103 59.8697 50.7521 59.0478 51.4813C58.2258 52.1972 57.2381 52.7607 56.0847 53.1716C54.9313 53.5694 53.5989 53.7682 52.0875 53.7682ZM54.5137 47.9216C55.7599 47.9216 56.8603 47.6764 57.8148 47.1858C58.7694 46.6821 59.5184 46.0059 60.062 45.1574C60.6055 44.309 60.8773 43.3478 60.8773 42.2739V39.0324C60.6122 39.2048 60.2476 39.3639 59.7836 39.5097C59.3328 39.6423 58.8224 39.7682 58.2523 39.8876C57.6822 39.9936 57.1122 40.093 56.5421 40.1858C55.972 40.2654 55.455 40.3383 54.9909 40.4046C53.9966 40.5504 53.1283 40.7824 52.3858 41.1006C51.6434 41.4188 51.0667 41.8497 50.6557 42.3932C50.2447 42.9235 50.0392 43.5864 50.0392 44.3819C50.0392 45.5353 50.4569 46.4169 51.2921 47.0268C52.1406 47.6233 53.2144 47.9216 54.5137 47.9216ZM84.3333 12.4643V53.1915H75.8617V12.4643H84.3333ZM99.8297 53.7682C97.8809 53.7682 96.1441 53.4302 94.6195 52.754C93.0949 52.0646 91.8884 51.0504 91.0002 49.7114C90.1252 48.3591 89.6877 46.6754 89.6877 44.6603C89.6877 42.9633 89.9992 41.5381 90.6223 40.3847C91.2454 39.2313 92.0939 38.3033 93.1678 37.6006C94.2417 36.898 95.4614 36.3677 96.8269 36.0097C98.2057 35.6518 99.6507 35.3999 101.162 35.254C102.939 35.0684 104.37 34.8961 105.458 34.737C106.545 34.5646 107.334 34.3127 107.824 33.9813C108.315 33.6499 108.56 33.1593 108.56 32.5097V32.3904C108.56 31.1309 108.162 30.1565 107.367 29.4671C106.584 28.7777 105.471 28.433 104.026 28.433C102.501 28.433 101.288 28.7711 100.387 29.4472C99.485 30.1101 98.8884 30.9453 98.5968 31.9529L90.7615 31.3165C91.1593 29.4605 91.9415 27.8563 93.1081 26.504C94.2748 25.1385 95.7795 24.0911 97.6223 23.362C99.4784 22.6196 101.626 22.2483 104.066 22.2483C105.762 22.2483 107.387 22.4472 108.938 22.8449C110.502 23.2427 111.887 23.8591 113.094 24.6944C114.314 25.5296 115.275 26.6035 115.977 27.916C116.68 29.2152 117.031 30.773 117.031 32.5893V53.1915H108.997V48.9557H108.759C108.268 49.9103 107.612 50.7521 106.79 51.4813C105.968 52.1972 104.98 52.7607 103.827 53.1716C102.673 53.5694 101.341 53.7682 99.8297 53.7682ZM102.256 47.9216C103.502 47.9216 104.602 47.6764 105.557 47.1858C106.512 46.6821 107.261 46.0059 107.804 45.1574C108.348 44.309 108.619 43.3478 108.619 42.2739V39.0324C108.354 39.2048 107.99 39.3639 107.526 39.5097C107.075 39.6423 106.565 39.7682 105.994 39.8876C105.424 39.9936 104.854 40.093 104.284 40.1858C103.714 40.2654 103.197 40.3383 102.733 40.4046C101.739 40.5504 100.87 40.7824 100.128 41.1006C99.3856 41.4188 98.8089 41.8497 98.3979 42.3932C97.9869 42.9235 97.7814 43.5864 97.7814 44.3819C97.7814 45.5353 98.199 46.4169 99.0343 47.0268C99.8828 47.6233 100.957 47.9216 102.256 47.9216ZM132.075 35.5324V53.1915H123.604V22.6461H131.678V28.0353H132.036C132.712 26.2588 133.845 24.8535 135.436 23.8194C137.027 22.772 138.956 22.2483 141.223 22.2483C143.344 22.2483 145.194 22.7124 146.771 23.6404C148.349 24.5684 149.575 25.8942 150.45 27.6177C151.325 29.3279 151.763 31.3696 151.763 33.7427V53.1915H143.291V35.254C143.305 33.3847 142.827 31.9264 141.86 30.879C140.892 29.8184 139.559 29.2881 137.862 29.2881C136.722 29.2881 135.715 29.5334 134.84 30.0239C133.978 30.5144 133.302 31.2304 132.811 32.1716C132.334 33.0997 132.089 34.2199 132.075 35.5324ZM172.241 53.7881C169.112 53.7881 166.421 53.1252 164.167 51.7995C161.927 50.4605 160.203 48.6044 158.997 46.2313C157.803 43.8582 157.207 41.1271 157.207 38.0381C157.207 34.9093 157.81 32.165 159.017 29.8052C160.236 27.4321 161.966 25.5826 164.207 24.2569C166.447 22.9179 169.112 22.2483 172.201 22.2483C174.866 22.2483 177.199 22.7322 179.201 23.7C181.203 24.6679 182.787 26.0268 183.954 27.7768C185.121 29.5268 185.764 31.5817 185.883 33.9415H177.889C177.663 32.4169 177.067 31.1906 176.099 30.2626C175.144 29.3213 173.892 28.8506 172.34 28.8506C171.028 28.8506 169.881 29.2086 168.9 29.9245C167.932 30.6271 167.177 31.6546 166.633 33.0069C166.089 34.3591 165.818 35.9965 165.818 37.9188C165.818 39.8677 166.083 41.5249 166.613 42.8904C167.157 44.2559 167.919 45.2966 168.9 46.0126C169.881 46.7285 171.028 47.0864 172.34 47.0864C173.308 47.0864 174.177 46.8876 174.945 46.4898C175.728 46.0921 176.371 45.5154 176.874 44.7597C177.392 43.9908 177.73 43.0694 177.889 41.9955H185.883C185.75 44.3288 185.114 46.3838 183.974 48.1603C182.847 49.9235 181.289 51.3023 179.301 52.2966C177.312 53.291 174.959 53.7881 172.241 53.7881ZM205.227 53.7881C202.085 53.7881 199.381 53.1518 197.114 51.879C194.86 50.593 193.123 48.7768 191.904 46.4302C190.684 44.0703 190.074 41.2796 190.074 38.058C190.074 34.916 190.684 32.1584 191.904 29.7853C193.123 27.4122 194.84 25.5627 197.054 24.237C199.281 22.9112 201.893 22.2483 204.889 22.2483C206.905 22.2483 208.78 22.5732 210.517 23.2228C212.267 23.8591 213.792 24.8203 215.091 26.1063C216.404 27.3923 217.424 29.0097 218.154 30.9586C218.883 32.8942 219.247 35.1612 219.247 37.7597V40.0864H193.455V34.8364H211.273C211.273 33.6167 211.008 32.5362 210.477 31.5949C209.947 30.6536 209.211 29.9179 208.27 29.3876C207.342 28.844 206.262 28.5722 205.029 28.5722C203.743 28.5722 202.602 28.8705 201.608 29.4671C200.627 30.0504 199.858 30.8393 199.301 31.8336C198.744 32.8146 198.459 33.9084 198.446 35.1148V40.1063C198.446 41.6177 198.725 42.9235 199.281 44.0239C199.852 45.1243 200.654 45.9728 201.688 46.5694C202.722 47.166 203.948 47.4643 205.367 47.4643C206.308 47.4643 207.17 47.3317 207.952 47.0665C208.734 46.8014 209.404 46.4036 209.96 45.8733C210.517 45.343 210.941 44.6934 211.233 43.9245L219.068 44.4415C218.671 46.3241 217.855 47.968 216.622 49.3733C215.403 50.7654 213.825 51.8525 211.889 52.6347C209.967 53.4036 207.746 53.7881 205.227 53.7881ZM259.99 24.1773C259.83 22.5732 259.148 21.3269 257.941 20.4387C256.735 19.5504 255.097 19.1063 253.029 19.1063C251.624 19.1063 250.437 19.3052 249.47 19.7029C248.502 20.0874 247.759 20.6243 247.242 21.3137C246.739 22.0031 246.487 22.7853 246.487 23.6603C246.46 24.3894 246.613 25.0258 246.944 25.5694C247.289 26.1129 247.759 26.5836 248.356 26.9813C248.953 27.3658 249.642 27.7038 250.424 27.9955C251.206 28.2739 252.042 28.5126 252.93 28.7114L256.589 29.5864C258.365 29.9841 259.996 30.5144 261.481 31.1773C262.966 31.8402 264.252 32.6555 265.339 33.6233C266.426 34.5911 267.268 35.7313 267.865 37.0438C268.474 38.3563 268.786 39.861 268.799 41.558C268.786 44.0504 268.15 46.2114 266.89 48.041C265.644 49.8572 263.841 51.2692 261.481 52.2768C259.134 53.2711 256.304 53.7682 252.99 53.7682C249.702 53.7682 246.838 53.2644 244.399 52.2569C241.972 51.2493 240.077 49.7578 238.711 47.7824C237.359 45.7938 236.65 43.3345 236.583 40.4046H244.916C245.008 41.7701 245.4 42.9103 246.089 43.8251C246.792 44.7266 247.726 45.4093 248.893 45.8733C250.073 46.3241 251.405 46.5495 252.89 46.5495C254.348 46.5495 255.615 46.3374 256.688 45.9131C257.776 45.4889 258.617 44.8989 259.214 44.1432C259.811 43.3876 260.109 42.5192 260.109 41.5381C260.109 40.6233 259.837 39.8544 259.294 39.2313C258.763 38.6082 257.981 38.0779 256.947 37.6404C255.926 37.2029 254.673 36.8052 253.188 36.4472L248.754 35.3336C245.32 34.4983 242.609 33.1925 240.62 31.416C238.632 29.6394 237.644 27.2465 237.657 24.237C237.644 21.7711 238.3 19.6167 239.626 17.7739C240.965 15.9311 242.801 14.4927 245.134 13.4586C247.468 12.4245 250.119 11.9074 253.089 11.9074C256.112 11.9074 258.75 12.4245 261.004 13.4586C263.271 14.4927 265.034 15.9311 266.294 17.7739C267.553 19.6167 268.203 21.7512 268.242 24.1773H259.99ZM282.904 35.5324V53.1915H274.432V12.4643H282.665V28.0353H283.023C283.712 26.2322 284.826 24.8203 286.364 23.7995C287.902 22.7654 289.831 22.2483 292.151 22.2483C294.272 22.2483 296.121 22.7124 297.699 23.6404C299.29 24.5552 300.523 25.8743 301.398 27.5978C302.286 29.308 302.724 31.3563 302.71 33.7427V53.1915H294.239V35.254C294.252 33.3715 293.775 31.9065 292.807 30.8591C291.852 29.8118 290.513 29.2881 288.79 29.2881C287.637 29.2881 286.616 29.5334 285.727 30.0239C284.852 30.5144 284.163 31.2304 283.659 32.1716C283.169 33.0997 282.917 34.2199 282.904 35.5324ZM323.298 53.7881C320.156 53.7881 317.451 53.1518 315.184 51.879C312.93 50.593 311.194 48.7768 309.974 46.4302C308.754 44.0703 308.144 41.2796 308.144 38.058C308.144 34.916 308.754 32.1584 309.974 29.7853C311.194 27.4122 312.91 25.5627 315.124 24.237C317.352 22.9112 319.963 22.2483 322.96 22.2483C324.975 22.2483 326.851 22.5732 328.588 23.2228C330.338 23.8591 331.862 24.8203 333.161 26.1063C334.474 27.3923 335.495 29.0097 336.224 30.9586C336.953 32.8942 337.318 35.1612 337.318 37.7597V40.0864H311.525V34.8364H329.343C329.343 33.6167 329.078 32.5362 328.548 31.5949C328.017 30.6536 327.282 29.9179 326.34 29.3876C325.412 28.844 324.332 28.5722 323.099 28.5722C321.813 28.5722 320.673 28.8705 319.678 29.4671C318.697 30.0504 317.928 30.8393 317.372 31.8336C316.815 32.8146 316.53 33.9084 316.517 35.1148V40.1063C316.517 41.6177 316.795 42.9235 317.352 44.0239C317.922 45.1243 318.724 45.9728 319.758 46.5694C320.792 47.166 322.018 47.4643 323.437 47.4643C324.378 47.4643 325.24 47.3317 326.022 47.0665C326.804 46.8014 327.474 46.4036 328.031 45.8733C328.588 45.343 329.012 44.6934 329.303 43.9245L337.139 44.4415C336.741 46.3241 335.926 47.968 334.693 49.3733C333.473 50.7654 331.895 51.8525 329.96 52.6347C328.037 53.4036 325.817 53.7881 323.298 53.7881ZM356.767 53.7881C353.624 53.7881 350.92 53.1518 348.653 51.879C346.399 50.593 344.662 48.7768 343.443 46.4302C342.223 44.0703 341.613 41.2796 341.613 38.058C341.613 34.916 342.223 32.1584 343.443 29.7853C344.662 27.4122 346.379 25.5627 348.593 24.237C350.82 22.9112 353.432 22.2483 356.428 22.2483C358.444 22.2483 360.32 22.5732 362.056 23.2228C363.806 23.8591 365.331 24.8203 366.63 26.1063C367.943 27.3923 368.963 29.0097 369.693 30.9586C370.422 32.8942 370.786 35.1612 370.786 37.7597V40.0864H344.994V34.8364H362.812C362.812 33.6167 362.547 32.5362 362.017 31.5949C361.486 30.6536 360.75 29.9179 359.809 29.3876C358.881 28.844 357.801 28.5722 356.568 28.5722C355.282 28.5722 354.142 28.8705 353.147 29.4671C352.166 30.0504 351.397 30.8393 350.84 31.8336C350.284 32.8146 349.999 33.9084 349.985 35.1148V40.1063C349.985 41.6177 350.264 42.9235 350.82 44.0239C351.391 45.1243 352.193 45.9728 353.227 46.5694C354.261 47.166 355.487 47.4643 356.906 47.4643C357.847 47.4643 358.709 47.3317 359.491 47.0665C360.273 46.8014 360.943 46.4036 361.499 45.8733C362.056 45.343 362.481 44.6934 362.772 43.9245L370.607 44.4415C370.21 46.3241 369.394 47.968 368.161 49.3733C366.942 50.7654 365.364 51.8525 363.428 52.6347C361.506 53.4036 359.285 53.7881 356.767 53.7881ZM392.562 22.6461V29.0097H374.167V22.6461H392.562ZM378.343 15.3279H386.815V43.8052C386.815 44.5874 386.934 45.1972 387.173 45.6347C387.411 46.059 387.743 46.3572 388.167 46.5296C388.605 46.7019 389.108 46.7881 389.678 46.7881C390.076 46.7881 390.474 46.755 390.872 46.6887C391.269 46.6091 391.574 46.5495 391.786 46.5097L393.119 52.8137C392.695 52.9463 392.098 53.0987 391.329 53.2711C390.56 53.4567 389.625 53.5694 388.525 53.6091C386.483 53.6887 384.694 53.4169 383.156 52.7938C381.631 52.1707 380.445 51.2029 379.596 49.8904C378.748 48.5779 378.33 46.9207 378.343 44.9188V15.3279ZM423.112 31.3563L415.357 31.8336C415.224 31.1707 414.939 30.5741 414.502 30.0438C414.064 29.5002 413.487 29.0694 412.771 28.7512C412.069 28.4197 411.227 28.254 410.246 28.254C408.933 28.254 407.826 28.5324 406.925 29.0893C406.023 29.6328 405.573 30.362 405.573 31.2768C405.573 32.0059 405.864 32.6224 406.448 33.1262C407.031 33.63 408.032 34.0343 409.45 34.3393L414.979 35.4529C417.949 36.0627 420.163 37.0438 421.621 38.3961C423.079 39.7483 423.808 41.5249 423.808 43.7256C423.808 45.7275 423.218 47.4841 422.039 48.9955C420.872 50.5069 419.268 51.6868 417.226 52.5353C415.198 53.3705 412.858 53.7881 410.206 53.7881C406.163 53.7881 402.941 52.9463 400.541 51.2626C398.155 49.5656 396.756 47.2588 396.345 44.3421L404.678 43.9046C404.93 45.1376 405.539 46.0788 406.507 46.7285C407.475 47.3648 408.715 47.683 410.226 47.683C411.711 47.683 412.904 47.398 413.806 46.8279C414.72 46.2446 415.184 45.4955 415.198 44.5807C415.184 43.8118 414.86 43.1821 414.223 42.6915C413.587 42.1877 412.606 41.8033 411.28 41.5381L405.99 40.4841C403.007 39.8876 400.787 38.8535 399.328 37.3819C397.883 35.9103 397.161 34.0343 397.161 31.754C397.161 29.7919 397.691 28.1016 398.752 26.683C399.825 25.2644 401.33 24.1707 403.266 23.4018C405.215 22.6328 407.495 22.2483 410.107 22.2483C413.965 22.2483 417.001 23.0637 419.215 24.6944C421.442 26.3251 422.741 28.5457 423.112 31.3563Z" fill="white"/>
<defs>
<linearGradient id="paint0_linear_1248_185320" x1="211.5" y1="0" x2="211.5" y2="62" gradientUnits="userSpaceOnUse">
<stop stop-color="#9747FF"/>
<stop offset="1" stop-color="#11FFF5"/>
</linearGradient>
</defs>
</svg>
